<svg width="240" height="79" viewBox="0 0 240 79" fill="none" xmlns="http://www.w3.org/2000/svg">
<rect y="18" width="240" height="61" rx="30.5" fill="white"/>
<path d="M12.3345 9.54604C12.2009 10.971 12.1072 13.4929 12.9486 14.5664C12.9486 14.5664 12.5525 11.796 16.1033 8.32026C17.533 6.92104 17.8634 5.01791 17.3642 3.59057C17.0806 2.78198 16.5626 2.11401 16.1126 1.6476C15.8501 1.37338 16.0517 0.92104 16.4337 0.937446C18.7447 1.04057 22.49 1.68276 24.0814 5.67651C24.7798 7.42963 24.8314 9.24135 24.4986 11.0835C24.2876 12.2601 23.5376 14.8757 25.2486 15.1968C26.4697 15.4265 27.0603 14.4562 27.3251 13.7578C27.4353 13.4671 27.8173 13.3945 28.0236 13.6265C30.0861 15.9726 30.2619 18.7359 29.8353 21.1148C29.0103 25.7132 24.3533 29.0601 19.7267 29.0601C13.947 29.0601 9.34624 25.7531 8.15327 19.7671C7.6728 17.3507 7.91655 12.5695 11.6431 9.19448C11.9197 8.94135 12.372 9.16635 12.3345 9.54604V9.54604Z" fill="url(#paint0_radial_43_178)"/>
<path d="M21.838 18.1453C19.7076 15.4031 20.6615 12.2742 21.1841 11.0274C21.2544 10.8633 21.0669 10.7086 20.9193 10.8094C20.0029 11.4328 18.1255 12.9 17.2513 14.9649C16.0677 17.7563 16.1521 19.1227 16.8529 20.7914C17.2747 21.7969 16.7849 22.0102 16.5388 22.0477C16.2997 22.0852 16.0794 21.9258 15.9037 21.7594C15.398 21.2739 15.0376 20.6571 14.863 19.9781C14.8255 19.8328 14.6357 19.793 14.549 19.9125C13.8927 20.8195 13.5529 22.275 13.5365 23.3039C13.4849 26.4844 16.1122 29.0625 19.2904 29.0625C23.2958 29.0625 26.2138 24.6328 23.9123 20.9297C23.2443 19.8516 22.6162 19.1461 21.838 18.1453Z" fill="url(#paint1_radial_43_178)"/>
<path d="M42.002 40.842V56H39.824L33.312 45.154V56H30.98V40.842H33.224L39.67 51.6V40.842H42.002ZM55.0903 50.83C55.0903 51.072 55.0903 51.424 55.0683 51.666H46.9063C47.1483 53.25 48.3803 54.24 50.0523 54.24C51.1963 54.24 52.3183 53.712 52.8463 52.766L54.6943 53.58C53.8143 55.406 51.8563 56.22 49.9423 56.22C47.0383 56.22 44.6623 54.086 44.6623 50.83C44.6623 47.574 47.0383 45.506 49.9423 45.506C52.8463 45.506 55.0903 47.574 55.0903 50.83ZM46.9063 50.016H52.8683C52.6263 48.41 51.5043 47.486 49.9423 47.486C48.3583 47.486 47.1483 48.432 46.9063 50.016ZM60.3026 56L56.0126 45.726H58.4106L61.3586 53.118L64.2626 45.726H66.6826L62.3926 56H60.3026ZM78.1 50.83C78.1 51.072 78.1 51.424 78.078 51.666H69.916C70.158 53.25 71.39 54.24 73.062 54.24C74.206 54.24 75.328 53.712 75.856 52.766L77.704 53.58C76.824 55.406 74.866 56.22 72.952 56.22C70.048 56.22 67.672 54.086 67.672 50.83C67.672 47.574 70.048 45.506 72.952 45.506C75.856 45.506 78.1 47.574 78.1 50.83ZM69.916 50.016H75.878C75.636 48.41 74.514 47.486 72.952 47.486C71.368 47.486 70.158 48.432 69.916 50.016ZM82.7582 52.304V56H80.4922V45.726H82.7582V48.08C83.2862 46.232 84.2762 45.506 85.5742 45.506C86.3002 45.506 87.0702 45.66 87.4002 45.902L87.0262 47.992C86.4322 47.706 85.9482 47.64 85.5082 47.64C83.5722 47.64 82.7582 49.576 82.7582 52.304ZM93.6896 50.83C93.6896 47.574 96.2196 45.506 99.1676 45.506C100.818 45.506 102.27 46.144 103.238 47.288L101.478 48.696C100.928 48.058 100.07 47.706 99.1676 47.706C97.4516 47.706 95.9336 48.916 95.9336 50.83C95.9336 52.744 97.4516 54.042 99.1676 54.042C100.07 54.042 100.928 53.668 101.478 53.03L103.26 54.416C102.292 55.56 100.84 56.22 99.1676 56.22C96.2196 56.22 93.6896 54.086 93.6896 50.83ZM110.122 54.02C111.838 54.02 113.246 52.766 113.246 50.83C113.246 48.96 111.838 47.728 110.122 47.728C108.428 47.728 107.02 48.96 107.02 50.83C107.02 52.766 108.428 54.02 110.122 54.02ZM110.122 56.22C107.218 56.22 104.776 54.086 104.776 50.83C104.776 47.574 107.218 45.506 110.122 45.506C113.048 45.506 115.512 47.574 115.512 50.83C115.512 54.086 113.048 56.22 110.122 56.22ZM122.711 54.02C124.427 54.02 125.835 52.766 125.835 50.83C125.835 48.96 124.427 47.728 122.711 47.728C121.017 47.728 119.609 48.96 119.609 50.83C119.609 52.766 121.017 54.02 122.711 54.02ZM122.711 56.22C119.807 56.22 117.365 54.086 117.365 50.83C117.365 47.574 119.807 45.506 122.711 45.506C125.637 45.506 128.101 47.574 128.101 50.83C128.101 54.086 125.637 56.22 122.711 56.22ZM137.237 56L132.859 51.226V56H130.615V40.138H132.859V49.114L136.115 45.726H139.151L134.773 50.192L140.141 56H137.237ZM155.338 56V54.526C154.634 55.648 153.204 56.22 151.884 56.22C149.134 56.22 146.67 54.13 146.67 50.852C146.67 47.574 149.134 45.506 151.884 45.506C153.116 45.506 154.634 46.012 155.338 47.178V45.726H157.582V56H155.338ZM149.002 50.83C149.002 52.722 150.454 54.02 152.148 54.02C153.82 54.02 155.316 52.854 155.316 50.83C155.316 48.828 153.688 47.706 152.148 47.706C150.454 47.706 149.002 48.938 149.002 50.83ZM168.744 50.874C168.744 48.828 167.27 47.706 165.576 47.706C163.86 47.706 162.452 49.004 162.452 50.874C162.452 52.81 163.86 54.042 165.576 54.042C167.116 54.042 168.744 52.898 168.744 50.874ZM162.474 57.298C163.024 58.376 164.234 59.014 165.356 59.014C167.446 59.014 168.788 57.848 168.788 54.966V54.438C168.216 55.604 166.698 56.22 165.312 56.22C162.54 56.22 160.12 54.152 160.12 50.896C160.12 47.64 162.54 45.506 165.312 45.506C166.72 45.506 168.15 46.122 168.788 47.244V45.726H171.01V54.482C171.01 59.212 168.81 61.126 165.356 61.126C163.354 61.126 161.572 60.092 160.604 58.244C161.022 58.068 162.056 57.474 162.474 57.298ZM182.194 56V54.526C181.49 55.648 180.06 56.22 178.74 56.22C175.99 56.22 173.526 54.13 173.526 50.852C173.526 47.574 175.99 45.506 178.74 45.506C179.972 45.506 181.49 46.012 182.194 47.178V45.726H184.438V56H182.194ZM175.858 50.83C175.858 52.722 177.31 54.02 179.004 54.02C180.676 54.02 182.172 52.854 182.172 50.83C182.172 48.828 180.544 47.706 179.004 47.706C177.31 47.706 175.858 48.938 175.858 50.83ZM189.857 45.726V56H187.613V45.726H189.857ZM187.217 41.568C187.217 40.754 187.921 40.138 188.735 40.138C189.593 40.138 190.231 40.754 190.231 41.568C190.231 42.382 189.593 42.998 188.735 42.998C187.921 42.998 187.217 42.382 187.217 41.568ZM195.293 50.478V56H193.027V45.726H195.293V47.266C195.887 46.1 197.317 45.506 198.439 45.506C200.925 45.506 202.355 47.09 202.355 50.016V56H200.089V50.28C200.089 48.63 199.253 47.728 197.933 47.728C196.591 47.728 195.293 48.454 195.293 50.478ZM207.976 40.842L207.668 51.93H205.864L205.534 40.842H207.976ZM205.226 54.724C205.226 53.866 205.93 53.228 206.788 53.228C207.646 53.228 208.35 53.866 208.35 54.724C208.35 55.582 207.646 56.198 206.788 56.198C205.93 56.198 205.226 55.582 205.226 54.724Z" fill="#F54748"/>
<defs>
<radialGradient id="paint0_radial_43_178" cx="0" cy="0" r="1" gradientUnits="userSpaceOnUse" gradientTransform="translate(18.582 29.133) rotate(-179.751) scale(16.544 27.1454)">
<stop offset="0.314" stop-color="#FF9800"/>
<stop offset="0.662" stop-color="#FF6D00"/>
<stop offset="0.972" stop-color="#F44336"/>
</radialGradient>
<radialGradient id="paint1_radial_43_178" cx="0" cy="0" r="1" gradientUnits="userSpaceOnUse" gradientTransform="translate(19.5107 12.6699) rotate(90.5787) scale(17.3101 13.0271)">
<stop offset="0.214" stop-color="#FFF176"/>
<stop offset="0.328" stop-color="#FFF27D"/>
<stop offset="0.487" stop-color="#FFF48F"/>
<stop offset="0.672" stop-color="#FFF7AD"/>
<stop offset="0.793" stop-color="#FFF9C4"/>
<stop offset="0.822" stop-color="#FFF8BD" stop-opacity="0.804"/>
<stop offset="0.863" stop-color="#FFF6AB" stop-opacity="0.529"/>
<stop offset="0.91" stop-color="#FFF38D" stop-opacity="0.209"/>
<stop offset="0.941" stop-color="#FFF176" stop-opacity="0"/>
</radialGradient>
</defs>
</svg>
