<svg width="48" height="39" viewBox="0 0 48 39" fill="none" xmlns="http://www.w3.org/2000/svg">
<g clip-path="url(#clip0_3123_270)">
<path d="M10.548 15C12.6247 15 14.6548 15.6158 16.3815 16.7696C18.1082 17.9233 19.454 19.5632 20.2487 21.4818C21.0435 23.4005 21.2514 25.5117 20.8462 27.5485C20.4411 29.5853 19.4411 31.4562 17.9726 32.9246C16.5042 34.3931 14.6332 35.3931 12.5964 35.7982C10.5596 36.2034 8.44845 35.9955 6.52982 35.2007C4.6112 34.406 2.97132 33.0602 1.81757 31.3335C0.663814 29.6068 0.048 27.5767 0.048 25.5L0 24C0 18.4305 2.21249 13.089 6.15076 9.15076C10.089 5.21249 15.4305 3 21 3V9C19.0293 8.9947 17.0771 9.38013 15.2563 10.134C13.4355 10.8879 11.7822 11.9952 10.392 13.392C9.85168 13.9313 9.35324 14.511 8.901 15.126C9.438 15.042 9.987 14.997 10.545 14.997L10.548 15ZM37.548 15C39.6247 15 41.6548 15.6158 43.3815 16.7696C45.1082 17.9233 46.454 19.5632 47.2487 21.4818C48.0435 23.4005 48.2514 25.5117 47.8462 27.5485C47.4411 29.5853 46.4411 31.4562 44.9726 32.9246C43.5042 34.3931 41.6332 35.3931 39.5964 35.7982C37.5596 36.2034 35.4484 35.9955 33.5298 35.2007C31.6112 34.406 29.9713 33.0602 28.8176 31.3335C27.6638 29.6068 27.048 27.5767 27.048 25.5L27 24C27 18.4305 29.2125 13.089 33.1508 9.15076C37.089 5.21249 42.4305 3 48 3V9C46.0293 8.9947 44.0771 9.38013 42.2563 10.134C40.4355 10.8879 38.7822 11.9952 37.392 13.392C36.8517 13.9313 36.3532 14.511 35.901 15.126C36.438 15.042 36.987 14.997 37.548 14.997V15Z" fill="#F54748"/>
</g>
<defs>
<clipPath id="clip0_3123_270">
<rect width="48" height="39" fill="white"/>
</clipPath>
</defs>
</svg>
