<svg width="208" height="9" viewBox="0 0 208 9" fill="none" xmlns="http://www.w3.org/2000/svg">
<mask id="mask0_3012_1337" style="mask-type:alpha" maskUnits="userSpaceOnUse" x="0" y="0" width="208" height="9">
<rect width="208" height="8.1974" fill="#C4C4C4"/>
</mask>
<g mask="url(#mask0_3012_1337)">
<path d="M31.2425 -1.73345L31.7508 -1.8415L30.7616 -1.99642L31.2358 -2.10981C31.7113 -2.10878 32.3274 -1.93886 32.6627 -2.02915C32.7037 -2.11656 32.1859 -2.14461 32.0537 -2.21426C31.9368 -2.28564 31.8414 -2.35656 31.7686 -2.42617C32.0276 -2.42542 32.3123 -2.40858 32.6058 -2.37665C33.0007 -2.3245 33.3879 -2.29914 33.7249 -2.30339C34.414 -2.2893 35.0797 -2.30336 35.8289 -2.30026L35.5796 -2.51063L36.5452 -2.46142C36.6475 -2.44539 36.7695 -2.47117 36.87 -2.45134C37.7068 -2.28358 38.0609 -2.375 38.4626 -2.4508C38.5449 -2.47041 38.6441 -2.48505 38.7576 -2.49434C39.8738 -2.45416 40.8804 -2.21902 41.8857 -2.0983C42.0749 -2.06748 42.2564 -2.02792 42.4173 -1.98242C42.7669 -1.89398 43.1559 -1.82176 43.5485 -1.77239C43.9411 -1.72302 44.3249 -1.69806 44.6648 -1.69981C45.4164 -1.70176 46.2655 -1.64326 47.13 -1.52996C47.3871 -1.49264 47.6444 -1.46802 47.8854 -1.45767C48.1264 -1.44732 48.346 -1.45146 48.5299 -1.46984L49.1144 -1.34975C49.3678 -1.39848 49.689 -1.42522 50.0587 -1.42833C50.4284 -1.43145 50.8387 -1.41089 51.2649 -1.36789C51.7191 -1.32125 52.1803 -1.28981 52.6515 -1.24049C53.6249 -1.14622 54.5722 -1.08856 55.4639 -1.06931C56.792 -1.01228 58.0896 -0.968179 59.4293 -0.897071C60.2675 -0.862748 61.0841 -0.84387 61.8744 -0.840536C62.821 -0.827111 63.8449 -0.76212 64.8968 -0.648698C64.847 -0.542282 64.3857 -0.57372 64.0761 -0.577321C63.0775 -0.595009 62.0554 -0.640842 61.028 -0.675273C60.5652 -0.688713 60.1151 -0.693803 59.6803 -0.690507C58.9535 -0.694918 58.1873 -0.723273 57.3949 -0.775087C56.143 -0.832099 54.9311 -0.859504 53.7717 -0.857023C53.6808 -0.852808 53.5975 -0.845339 53.5232 -0.83474C53.5077 -0.825561 53.5046 -0.813985 53.5143 -0.801125C53.524 -0.788265 53.5461 -0.774545 53.5784 -0.761288C53.6108 -0.74803 53.6524 -0.735678 53.6992 -0.725408C53.746 -0.715138 53.7965 -0.707293 53.8458 -0.702632C54.3063 -0.630514 54.8009 -0.553058 55.2352 -0.542161C55.252 -0.541347 55.2699 -0.539488 55.2876 -0.536716C55.3053 -0.533944 55.3223 -0.53033 55.3375 -0.526135C56.3097 -0.373887 57.1091 -0.399651 57.8664 -0.374881C59.1237 -0.307935 60.3358 -0.276665 61.4842 -0.281542C61.6578 -0.281211 61.8452 -0.272508 62.0397 -0.255749C63.2425 -0.187814 64.3673 -0.180215 65.3612 -0.233297C65.7703 -0.246746 66.1506 -0.276936 66.5902 -0.277441C66.861 -0.279519 67.0967 -0.298785 67.2831 -0.334085C67.4696 -0.369385 67.6029 -0.41999 67.6751 -0.482856C67.8606 -0.449758 68.049 -0.42026 68.238 -0.394716C68.3509 -0.38011 68.4591 -0.37623 68.5409 -0.383874C68.6226 -0.391517 68.6717 -0.41011 68.6784 -0.435894C68.7122 -0.508105 68.4546 -0.544369 68.2311 -0.575292C68.3659 -0.590779 68.5178 -0.599889 68.6832 -0.602404C69.6146 -0.618904 70.6136 -0.599429 71.6585 -0.544408C72.4698 -0.478549 73.1175 -0.532155 73.971 -0.43928C74.0733 -0.423254 74.1576 -0.446777 74.2518 -0.452424C74.4974 -0.482166 74.8033 -0.488851 75.1431 -0.471894C75.4829 -0.454938 75.8463 -0.414851 76.2017 -0.355111C76.6444 -0.518323 77.6006 -0.331868 78.3067 -0.315111C78.5241 -0.23211 78.2747 -0.246702 78.264 -0.223899C78.2533 -0.201095 78.2639 -0.223903 78.1787 -0.237258C77.4736 -0.119714 76.5077 -0.0940832 75.4164 -0.163968C75.2146 -0.163678 75.0223 -0.158323 74.8414 -0.147955C74.5673 -0.13328 74.2584 -0.134746 73.928 -0.152287C73.567 -0.16517 73.2354 -0.159052 72.9492 -0.134228C72.7846 -0.134632 72.6453 -0.122196 72.5444 -0.0980638C72.4434 -0.0739321 72.3841 -0.0388856 72.3719 0.0038158C72.4818 0.0367346 72.6038 0.0668551 72.7329 0.0929829C73.407 0.196146 74.0793 0.238849 74.6174 0.212687C75.554 0.167612 76.6684 0.211599 77.6643 0.196211C78.3375 0.189977 79.0538 0.207733 79.7998 0.249149C79.7998 0.249149 79.7802 0.290955 79.7784 0.294756C79.8666 0.312856 79.9594 0.327379 80.0513 0.337493C80.0513 0.337493 80.0513 0.337493 80.0602 0.31849C80.0194 0.300242 79.9639 0.283074 79.9004 0.268976L79.6786 0.234251C79.8293 0.225215 79.9701 0.19831 80.1272 0.214748C80.4581 0.245288 80.7744 0.258181 81.057 0.252661C81.3396 0.247141 81.5827 0.223319 81.7716 0.182625C82.1065 0.130472 82.523 0.106754 82.9943 0.113005C83.3554 0.107311 83.7035 0.0950739 84.0367 0.0763539C84.0367 0.0763539 84.0581 0.0307506 84.2159 0.00651209C84.0665 -0.0233833 83.9106 -0.0477952 83.7554 -0.0656029C83.0806 -0.110093 82.4039 -0.150783 81.7408 -0.181201C81.4965 -0.184486 81.2669 -0.179391 81.0563 -0.166012C80.4728 -0.150355 79.8173 -0.172575 79.128 -0.231379C79.128 -0.231379 78.9915 -0.252746 78.9233 -0.26343C79.1168 -0.36368 79.7837 -0.263318 80.0535 -0.33121C80.2177 -0.329974 80.5067 -0.321437 80.4967 -0.33931C80.4742 -0.363161 80.4716 -0.385318 80.4889 -0.404192C80.5062 -0.423066 80.5431 -0.438191 80.5969 -0.448479C80.6507 -0.458768 80.7201 -0.463968 80.8001 -0.463704C80.8802 -0.463439 80.9689 -0.457715 81.0598 -0.446948C81.819 -0.388703 82.5341 -0.372506 83.1612 -0.399348C83.399 -0.39883 83.6655 -0.381568 83.9015 -0.377249C84.046 -0.372047 84.1778 -0.374939 84.29 -0.385767C84.8601 -0.465516 85.6273 -0.47134 86.4764 -0.402365C86.8867 -0.377567 87.2702 -0.374251 87.6069 -0.392586C87.8464 -0.395868 87.948 -0.33917 88.1186 -0.31246L88.8428 -0.256153L87.9127 -0.185602C88.1115 -0.0239185 88.2696 0.0293942 88.5944 0.039467C89.0683 0.0546783 89.5297 0.06155 89.9762 0.0600401C90.3063 0.0587113 90.579 0.0238918 91.026 0.0857372C91.1049 0.0958245 91.181 0.0990886 91.2413 0.0949834C91.7648 0.0400784 92.3952 0.0274786 93.0895 0.0580423C93.4489 -0.0447722 94.0611 0.0551898 94.6276 0.135732C94.8103 0.0582861 94.4791 0.0227345 94.2816 -0.02452C94.7553 -0.0196829 95.2326 -0.0224446 95.7216 -0.011136C95.8687 -0.0152531 96.0369 -0.00821019 96.2128 0.00943703C96.3888 0.0270843 96.5678 0.0548527 96.7358 0.0905724C96.8177 0.113652 96.9165 0.131022 97.0115 0.139076C97.1066 0.14713 97.1908 0.145251 97.2465 0.133828C97.5003 0.100142 97.9068 0.131169 98.1165 0.0742669C98.1911 0.0611803 98.2977 0.0593533 98.4173 0.0691053C98.5368 0.0788573 98.6615 0.0995575 98.769 0.127494C98.6513 0.136211 98.5465 0.149936 98.4569 0.168369C98.136 0.228248 98.2538 0.3283 98.6617 0.473758C99.2879 0.465758 99.9276 0.46803 100.508 0.440615C100.832 0.416006 101.228 0.423699 101.653 0.462831C102.077 0.501962 102.514 0.57098 102.912 0.662123C103.057 0.697171 103.221 0.721445 103.373 0.730126C103.525 0.738808 103.653 0.731259 103.733 0.708976C103.782 0.683206 103.797 0.650593 103.777 0.613962L103.368 0.54986C103.368 0.54986 103.384 0.515655 103.387 0.508054L103.976 0.502307C104.287 0.502107 104.612 0.512183 104.906 0.509312C105.339 0.490223 105.832 0.500864 106.356 0.540572C106.84 0.58129 107.315 0.612067 107.778 0.632633C108.226 0.653802 108.55 0.586318 108.976 0.575541C109.298 0.567417 109.653 0.576098 110.026 0.601245C110.671 0.645844 111.262 0.645928 111.747 0.601485C112.312 0.840933 112.587 0.879866 113.111 0.815164L113.358 0.796681L113.426 0.848038L113.614 0.836745C113.966 0.826685 114.319 0.81663 114.687 0.813042C115.198 0.835264 115.751 0.895049 116.29 0.986561C116.392 1.00259 116.532 1.05704 116.621 1.09967C116.711 1.1423 116.907 1.2709 117.051 1.35462C116.894 1.41573 116.72 1.47417 116.596 1.54443C116.583 1.55643 116.585 1.57075 116.6 1.58622C116.614 1.60169 116.642 1.61789 116.681 1.63352C116.72 1.64914 116.769 1.66376 116.824 1.67619C116.879 1.68862 116.938 1.69852 116.997 1.70509C117.111 1.71926 117.224 1.72871 117.331 1.73304C117.858 1.74051 118.363 1.73496 118.84 1.71643C119.015 1.69029 119.253 1.68781 119.519 1.70938C119.784 1.73095 120.06 1.77534 120.304 1.83551C120.929 1.79938 121.655 1.81006 122.432 1.86678C123.253 1.83228 124.246 1.90205 125.014 1.82646C124.996 1.86446 125.075 1.9299 125.186 1.9676C125.36 2.02486 125.558 2.07793 125.771 2.12456L127.394 2.2156C127.455 2.26242 127.531 2.30981 127.621 2.35715C127.683 2.39456 127.79 2.43115 127.92 2.45919C128.051 2.48723 128.194 2.5045 128.32 2.50735C128.643 2.52122 128.913 2.4902 129.299 2.56684C128.705 2.63928 127.905 2.62966 127.041 2.53968C126.229 2.47125 125.448 2.43705 124.727 2.43835C124.489 2.43783 124.176 2.44183 124.102 2.48322C123.937 2.60021 123.506 2.58172 123.004 2.56014C122.609 2.53652 122.248 2.53917 121.952 2.56788C121.655 2.59658 121.431 2.65053 121.297 2.72527C121.263 2.79748 121.344 2.85912 121.69 2.90114L123.131 3.06963C123.343 3.04797 123.545 3.02232 123.735 2.99281C124.054 2.9536 124.449 2.94284 124.888 2.96136C125.327 2.97988 125.799 3.02718 126.266 3.09958C126.505 3.13698 126.744 3.17437 126.917 3.1566C127.069 3.13619 127.209 3.11176 127.335 3.08347C127.361 3.06452 127.371 3.0427 127.366 3.01886C127.458 3.02995 127.55 3.04436 127.639 3.0616C128.35 3.26274 128.901 3.25926 129.401 3.20709C129.537 3.19158 129.64 3.16693 129.777 3.14762C129.914 3.12831 129.963 3.10325 130.087 3.11055C131.082 3.17651 131.368 2.95618 132.206 2.96503C132.247 2.95643 132.272 2.94356 132.28 2.92762C132.287 2.91168 132.277 2.89318 132.249 2.87382C132.19 2.85634 132.121 2.84131 132.05 2.83011C131.978 2.8189 131.906 2.81189 131.839 2.80972C131.454 2.78144 131.113 2.79011 130.876 2.83424C130.708 2.85228 130.53 2.86664 130.343 2.87727L129.504 2.55821C130.317 2.58746 131.086 2.58726 131.793 2.55764C131.947 2.541 132.208 2.56967 132.425 2.57511L134.022 2.60493C134.351 2.60741 134.631 2.55739 135.089 2.67398C135.089 2.67398 135.391 2.69278 135.472 2.67687C135.552 2.66095 135.91 2.56193 136.123 2.49743C136.371 2.51582 136.714 2.56544 136.868 2.54881C137.138 2.50794 137.371 2.45555 137.564 2.39258L138.529 2.48248C138.528 2.56233 138.492 2.63746 138.424 2.70671C138.348 2.7735 138.351 2.85367 138.431 2.94067C138.511 3.02766 138.667 3.11902 138.885 3.20727L139.837 3.67466C139.993 3.70596 140.158 3.72703 140.312 3.73501C140.465 3.74299 140.599 3.73749 140.695 3.71925C141.105 3.66513 141.564 3.62282 141.974 3.56869C142.503 3.65149 142.367 3.78523 142.751 3.90255L143.996 4.09753C144.186 4.27821 144.38 4.4513 143.802 4.51179C143.687 4.52237 143.765 4.5916 143.66 4.62005C144.109 4.75565 144.603 4.79624 145.058 4.87976C145.237 4.93982 145.387 5.0034 145.501 5.06743C145.625 5.16383 145.878 5.26231 146.204 5.34159C146.53 5.42088 146.903 5.4746 147.243 5.49118C147.813 5.54194 148.397 5.61817 148.968 5.71647C149.163 5.75065 149.364 5.77556 149.556 5.78951C149.749 5.80346 149.928 5.80613 150.084 5.79734C150.636 5.78186 151.104 5.72863 151.457 5.64113C151.805 5.56686 152.275 5.53107 152.824 5.53699C153.762 5.6839 153.951 5.90526 154.519 6.10024L153.538 6.1221C153.502 6.19811 153.567 6.29395 153.165 6.29219C152.763 6.29044 152.967 6.36317 153.098 6.43661C153.144 6.47356 153.233 6.51156 153.351 6.54419C153.47 6.57682 153.609 6.60207 153.746 6.61566L154.581 6.70967C154.877 6.74545 155.163 6.76072 155.409 6.75382C155.654 6.74692 155.849 6.71812 155.972 6.67056C156.113 6.6254 156.309 6.59486 156.545 6.5808C156.847 6.54396 157.095 6.48918 157.28 6.41851L158.459 6.52146C158.509 6.45046 158.671 6.40067 158.917 6.38051C159.163 6.36036 159.479 6.37108 159.81 6.41086L160.605 6.47405C161.488 6.54299 161.682 6.5203 161.94 6.3201L160.881 5.96251C161.035 5.86832 161.184 5.78553 161.332 5.70274C161.068 5.58494 160.716 5.47351 160.312 5.37978C159.935 5.27907 159.547 5.18153 159.149 5.08753C158.718 4.99148 158.263 4.90796 157.728 4.79968C157.634 4.76465 157.499 4.7026 157.325 4.64282C157.152 4.58472 156.971 4.52777 156.783 4.47219C156.819 4.39618 156.851 4.32777 156.782 4.23953C157.112 4.26769 157.452 4.31693 157.773 4.38282C158.094 4.44871 158.384 4.52917 158.619 4.61696C158.659 4.63253 158.707 4.64715 158.761 4.65984C158.815 4.67253 158.874 4.68299 158.932 4.69051C159.511 4.74445 159.788 4.85714 160.071 4.9953C160.262 5.06592 160.508 5.12865 160.774 5.17476C161.286 5.25489 161.787 5.35783 162.276 5.44669C162.426 5.4763 162.582 5.50067 162.737 5.5188C163.248 5.57645 163.763 5.65706 164.255 5.75653C164.415 5.78181 164.569 5.81526 164.704 5.8541C164.839 5.89293 164.95 5.93601 165.029 5.97974C164.907 6.02766 164.841 6.08815 164.836 6.15755C164.814 6.20315 165.174 6.29613 165.343 6.36352C165.513 6.4309 165.18 6.39915 165.067 6.40593C164.603 6.41896 164.517 6.44628 164.795 6.59585C164.888 6.64288 164.949 6.68994 164.976 6.73409C165.003 6.77825 164.993 6.81857 164.949 6.85255C164.883 6.99317 164.683 7.10863 164.545 7.24616C164.759 7.33677 165.116 7.43353 165.155 7.5457C165.174 7.57058 165.214 7.59694 165.271 7.62288C165.329 7.64882 165.403 7.67368 165.488 7.69567C165.712 7.74314 165.917 7.79992 166.084 7.86159C166.252 7.92326 166.38 7.98817 166.456 8.05131C166.481 8.07742 166.542 8.10512 166.626 8.12886C166.71 8.1526 166.811 8.17062 166.909 8.17931C167.026 8.18998 167.131 8.18857 167.202 8.17538C167.273 8.16219 167.304 8.13821 167.29 8.10843C167.293 8.05247 167.277 7.99413 167.244 7.93392C167.263 7.89211 167.283 7.8503 167.205 7.78107C167.555 7.80634 167.922 7.85697 168.267 7.92748C168.611 7.99799 168.92 8.08567 169.16 8.18099C169.425 8.2796 169.669 8.38316 169.963 8.49851C169.903 8.62773 169.903 8.62773 170.528 8.85619L173.844 8.9676L174.524 9.11892C175.158 9.25082 175.309 9.24179 175.707 9.17359L175.975 9.10949C176.538 9.19764 177.186 9.29914 177.538 9.13397C177.652 9.24163 177.727 9.27778 177.701 9.29412C177.533 9.45298 177.241 9.58778 176.836 9.69316C176.733 9.71781 176.661 9.7554 176.541 9.77738C176.153 9.90144 176.063 10.0931 176.289 10.3133C176.402 10.4107 176.565 10.5104 176.773 10.6093C176.468 10.7465 176.064 10.8602 175.571 10.9473C175.153 11.0147 174.809 11.105 174.548 11.2155C174.314 11.327 173.964 11.4107 173.517 11.462C173.291 11.4838 173.125 11.5269 173.038 11.5868C173.012 11.7491 173.072 11.9229 173.216 12.1043C173.244 12.1595 173.321 12.2191 173.442 12.2785C173.564 12.3379 173.726 12.3954 173.916 12.4465C173.916 12.4465 174.008 12.4853 174.052 12.5085C174.089 12.7051 173.951 12.8783 173.649 13.0166C173.6 13.0558 173.498 13.0841 173.356 13.0985C173.214 13.1129 173.036 13.1128 172.842 13.0982C172.432 13.0748 172.049 13.0719 171.652 13.0587C171.225 13.0401 170.848 13.0548 170.562 13.1012C170.276 13.1476 170.092 13.224 170.027 13.3224C170.023 13.3503 170.011 13.3769 169.99 13.4022C169.978 13.4152 169.971 13.4292 169.97 13.444L170.881 13.7661L169.851 13.8944C169.79 14.0236 170.285 14.1011 170.533 14.197L170.379 14.2506C170.182 14.2809 169.916 14.2229 169.676 14.1893L169.437 14.1519L169.409 14.2127C169.26 14.2955 168.718 14.2025 168.506 14.2632C168.295 14.3239 168.446 14.3924 168.763 14.4583C168.983 14.5074 169.219 14.5464 169.455 14.5727C169.69 14.5989 169.917 14.6115 170.12 14.6097C170.241 14.6032 170.341 14.5883 170.415 14.5661C170.842 14.4714 171.315 14.39 171.829 14.3225C172.223 14.2618 172.716 14.2361 173.274 14.2469C173.438 14.2423 173.635 14.2567 173.832 14.2875C174.028 14.3183 174.211 14.3635 174.348 14.4152L174.637 14.4237C174.637 14.4237 174.795 14.477 174.773 14.4858C174.663 14.6437 174.791 14.8368 175.137 15.0365L174.836 15.0545C174.405 15.036 174.678 15.1563 174.614 15.2156C174.308 15.2044 173.91 15.1544 173.765 15.2295L173.548 15.2241L173.633 15.2374L173.737 15.2128L174.142 15.3252C173.95 15.3441 173.811 15.3672 173.641 15.3773C173.547 15.3862 173.473 15.4018 173.422 15.4233C173.371 15.4447 173.345 15.4716 173.345 15.5022C173.345 15.5494 173.295 15.5891 173.198 15.6175C173.101 15.6459 172.962 15.6622 172.792 15.6646C172.591 15.6657 172.475 15.7169 172.357 15.7351L172.871 16.0441C172.871 16.0441 172.615 16.004 172.754 16.0585L172.772 16.0205L173.084 16.0978C173.308 16.1656 173.465 16.182 173.598 16.1335C173.731 16.0849 173.7 16.1495 173.764 16.1309C173.741 16.1803 173.596 16.2148 173.473 16.2444C173.33 16.2676 173.168 16.2847 172.991 16.2954C173.31 16.5127 173.326 16.5192 172.859 16.5767C172.393 16.6342 172.554 16.7206 172.164 16.7329C171.773 16.7452 172.217 16.8922 172.478 16.9209C172.672 16.9397 172.869 16.9691 173.057 17.0069C173.245 17.0448 173.418 17.0902 173.566 17.1401L173.487 17.3073C173.372 17.2935 173.257 17.2755 173.146 17.2539C172.768 17.1621 172.424 17.0756 172.088 17.129L172.248 17.256L171.074 17.1824C171.104 17.2776 171.283 17.3861 171.573 17.4849C171.529 17.5392 171.503 17.5963 171.493 17.6559C171.473 17.6977 171.358 17.6714 171.282 17.6759C171.013 17.6829 170.793 17.7113 170.64 17.7584C170.487 17.8056 170.406 17.8702 170.405 17.9465C170.374 18.0111 170.788 18.1452 171.046 18.1407C171.691 18.1536 172.389 18.2033 173.101 18.2872C173.535 18.2981 173.597 18.1282 174.311 18.2441C174.326 18.3226 174.234 18.3861 174.051 18.4251C173.867 18.4641 173.602 18.4764 173.295 18.4602C173.469 18.6345 174.437 18.6799 174.479 18.862C174.239 18.8491 173.981 18.8189 173.732 18.7742C173.483 18.7295 173.252 18.672 173.061 18.6072C173.02 18.5913 172.968 18.5766 172.91 18.5645C172.853 18.5524 172.791 18.5433 172.732 18.538C172.672 18.5327 172.616 18.5315 172.569 18.5344C172.522 18.5372 172.486 18.5441 172.463 18.5544C172.597 18.6203 172.745 18.6964 172.913 18.7676C173.081 18.8388 173.121 18.8696 173.242 18.8845C174.146 19.026 174.576 19.281 175.358 19.4483C175.563 19.4804 175.588 19.5823 175.41 19.5708C175.241 19.5593 175.088 19.5608 174.968 19.5751C174.849 19.5895 174.767 19.6161 174.732 19.6521C174.6 19.6941 174.437 19.7275 174.246 19.7514C175.048 20.0131 176.004 20.2443 177.025 20.4233C177.218 20.4586 177.42 20.4802 177.6 20.4848C178.17 20.4851 178.775 20.5058 179.402 20.5467C179.624 20.5578 179.83 20.5568 180.007 20.5436C180.59 20.5124 181.052 20.5807 181.474 20.7733L182.173 21.0786C182.15 21.128 182.033 21.1831 181.943 21.2587L182.489 21.4217L186.656 21.0462L187.492 21.4098L188.692 21.3896C188.784 21.4001 188.876 21.4145 188.965 21.4323C189.207 21.5396 189.397 21.6428 189.66 21.7452C189.923 21.8476 190.394 21.86 190.721 21.9808C191.049 22.1015 191.378 22.1039 191.783 22.1756C191.822 22.2691 191.782 22.3532 191.668 22.4227C191.63 22.5025 191.424 22.5518 191.388 22.6278C191.392 22.7046 191.316 22.7698 191.166 22.8175C191.015 22.8653 190.796 22.8939 190.528 22.901C189.777 23.0646 188.872 23.181 187.839 23.2469C187.749 23.2517 187.674 23.2627 187.619 23.2794C187.563 23.296 187.53 23.3179 187.519 23.3437C187.521 23.4182 187.452 23.4827 187.318 23.5322C187.184 23.5818 186.988 23.6153 186.744 23.6302C186.68 23.6332 186.631 23.6426 186.604 23.6571C186.511 23.6665 186.444 23.6845 186.408 23.7093C186.373 23.7341 186.37 23.7649 186.4 23.7988C186.43 23.8326 186.492 23.8684 186.58 23.9025C186.669 23.9367 186.78 23.9681 186.904 23.9938C187.083 24.0351 187.266 24.0747 187.452 24.1123C187.441 24.1351 187.257 24.1388 187.284 24.1594C187.357 24.2249 187.373 24.2864 187.333 24.3388C187.293 24.3912 187.196 24.4332 187.05 24.4614L188.046 24.9927C188.651 25.0663 189.244 25.1911 189.713 25.3434C189.713 25.3684 189.686 25.3893 189.635 25.4041C189.583 25.4189 189.508 25.427 189.417 25.4277C189.174 25.4385 188.944 25.4597 188.682 25.4717C188.522 25.4807 188.389 25.5004 188.29 25.5298C188.192 25.5592 188.13 25.5976 188.108 25.6428L188.693 25.8405C188.505 25.8886 188.366 25.9117 188.243 25.9413C188.313 26.0034 188.433 26.0677 188.595 26.1291C188.757 26.1905 188.955 26.2474 189.175 26.2954C189.234 26.3053 189.294 26.3126 189.352 26.3167C189.41 26.3209 189.464 26.3218 189.512 26.3196C189.964 26.2518 190.494 26.3715 191.009 26.4847C191.523 26.5979 191.803 26.6661 192.182 26.7541L192.909 26.7659C193.093 26.8076 193.257 26.8566 193.388 26.9091C193.52 26.9615 193.614 27.0159 193.665 27.0679C193.625 27.1515 193.281 27.1056 193.075 27.1143C192.588 27.1663 191.947 27.1552 191.259 27.0828C191.089 27.0561 190.914 27.0777 190.748 27.0802C190.39 27.0906 190.046 27.1076 189.717 27.131C189.501 27.1527 189.299 27.1796 189.112 27.2116C189.062 27.318 189.847 27.4002 189.402 27.4528C189.555 27.4768 189.613 27.5103 189.692 27.4982C190.197 27.5673 190.695 27.6014 191.128 27.5967C191.959 27.582 192.903 27.6305 193.881 27.7382C194.938 27.8498 195.951 27.8966 196.838 27.8749C197.176 27.8736 197.553 27.8964 197.942 27.9417C198.401 28.0043 198.856 28.0437 199.279 28.0572C199.419 28.0577 199.575 28.0684 199.734 28.0884C199.894 28.1083 200.052 28.1371 200.196 28.1722C200.183 28.1988 200.046 28.2181 200.077 28.2311C200.514 28.4301 200.692 28.6374 201.365 28.8408C201.826 28.9129 202.354 28.9957 202.656 28.9001C202.957 28.8045 202.849 28.7223 202.25 28.4775C202.38 28.474 202.536 28.4854 202.692 28.5098C202.848 28.5343 202.993 28.5701 203.102 28.6111L203.621 28.7942L204.088 28.9694C204.047 29.0568 204.015 29.1252 203.981 29.1974C203.927 29.2741 203.986 29.3675 204.149 29.4644C204.247 29.5173 204.332 29.5702 204.404 29.6227C204.696 29.8325 204.781 30.0308 204.648 30.1953C204.395 30.432 204.041 30.6496 203.593 30.8459C203.119 31.0369 202.859 31.2778 202.469 31.4859C202.27 31.5806 202.028 31.6656 201.746 31.7398C201.211 31.9048 200.624 32.0619 200.088 32.2307C199.551 32.3996 198.945 32.5209 198.348 32.66C197.461 32.8252 196.501 32.9679 195.475 33.0872C194.84 33.1918 194.188 33.2936 193.601 33.4138C192.908 33.5493 192.093 33.6466 191.177 33.7032C190.368 33.7711 189.646 33.8714 189.023 34.0023C188.958 34.0165 188.906 34.0345 188.87 34.0558C188.758 34.1893 188.443 34.2834 187.975 34.3237C188.004 34.3628 188.04 34.4025 188.084 34.4427C188.149 34.4907 188.163 34.5355 188.123 34.5715C188.083 34.6075 187.992 34.6329 187.862 34.6445C187.487 34.6775 187.176 34.7337 186.942 34.8105C186.856 34.8297 186.802 34.8578 186.786 34.8922C186.77 34.9266 186.791 34.9664 186.849 35.0081C186.9 35.051 186.903 35.0905 186.86 35.1215C186.816 35.1524 186.726 35.1734 186.603 35.1817C186.286 35.2223 185.946 35.255 185.587 35.2795C184.821 35.3337 183.931 35.333 182.969 35.2776C182.867 35.2616 182.764 35.2863 182.645 35.2676C181.965 35.2055 181.333 35.1959 180.827 35.2399C180.233 35.2571 179.612 35.2537 178.986 35.2616C178.081 35.2563 177.246 35.2889 176.505 35.3587C175.658 35.2913 175.182 35.4085 174.467 35.4107C173.807 35.4227 173.181 35.4516 172.596 35.4971C171.652 35.5573 170.712 35.61 169.782 35.6806C168.909 35.7142 168.106 35.7785 167.385 35.8723C167.109 35.9147 166.609 35.8486 166.421 35.9375C166.233 36.0263 165.853 36.0159 165.546 36.0453L164.579 36.1181C164.412 36.1355 164.229 36.1464 164.032 36.1509C163.133 36.1568 162.509 36.2755 161.674 36.2997L161.589 36.2863C160.106 36.4627 158.409 36.5595 156.548 36.5738C155.46 36.628 154.272 36.6254 153.118 36.665C152.843 36.7443 152.193 36.6466 151.848 36.719C151.502 36.7914 150.939 36.7439 150.494 36.7558C150.049 36.7678 149.614 36.7975 149.138 36.7965C148.725 36.7968 148.377 36.8292 148.124 36.8906C147.547 36.9921 146.844 37.0517 146.046 37.0669C144.99 37.0933 143.991 37.1531 142.917 37.14C142.933 37.2139 142.867 37.2769 142.726 37.3223C142.586 37.3677 142.376 37.394 142.119 37.3984C140.97 37.4266 139.929 37.5001 138.765 37.5219L138.454 37.5221L134.974 37.5646C134.036 37.5728 133.133 37.5863 132.177 37.5956C131.818 37.5395 131.81 37.6361 131.562 37.6177C131.493 37.5701 131.411 37.5492 131.289 37.575L131.263 37.632L127.291 37.7076C125.736 37.7629 124.1 37.7795 122.398 37.7572C121.994 37.7628 121.617 37.7817 121.273 37.8136C120.954 37.8252 120.621 37.8304 120.277 37.829C119.811 37.8146 119.356 37.8074 118.914 37.8073C117.75 37.829 116.529 37.8173 115.255 37.8014C113.981 37.7854 113.016 37.8137 111.882 37.8116C111.114 37.8096 110.349 37.8 109.554 37.7775C109.175 37.767 108.707 37.7101 108.314 37.6894C107.921 37.6686 107.793 37.6689 107.741 37.7016C107.57 37.7931 107.14 37.7339 106.796 37.725C106.126 37.7098 106.031 37.6785 105.849 37.442L106.671 37.3668C106.873 37.3425 107.126 37.3383 107.407 37.3544C107.688 37.3705 107.987 37.4066 108.276 37.459C108.389 37.4814 108.508 37.4992 108.625 37.5112C108.741 37.5232 108.854 37.5292 108.957 37.5289C109.787 37.5161 110.605 37.4892 111.402 37.4672L111.519 37.4529L111.526 37.2419C111.421 37.2212 111.311 37.204 111.202 37.1911L107.202 37.0542C106.284 37.0206 105.331 36.9448 104.43 36.9139C103.529 36.8829 103.044 36.864 102.345 36.832C102.05 36.8138 101.749 36.7899 101.444 36.7604C101.462 36.7401 101.472 36.7185 101.475 36.6958C101.491 36.6616 101.512 36.616 101.383 36.5794C101.242 36.5278 101.053 36.4837 100.855 36.456C100.669 36.4376 100.488 36.4273 100.32 36.4252C99.5088 36.4076 98.5821 36.2961 97.7377 36.1147L97.4429 36.2358C96.175 36.1678 94.8881 36.1008 93.5636 36.0362C93.2984 36.0186 93.0201 35.9848 92.7495 35.9373C92.4596 35.8919 92.1928 35.7971 91.8875 35.7452C91.5859 35.7078 91.2864 35.6787 90.9945 35.6584C91.0736 35.6272 91.1778 35.6023 91.3038 35.5844C91.4279 35.5782 91.5183 35.5587 91.5619 35.5288C91.6055 35.499 91.6001 35.4603 91.5464 35.4184C91.452 35.3465 91.4104 35.2788 91.6159 35.2702C91.8057 35.2538 91.9415 35.2183 92.0073 35.1679C92.0731 35.1175 92.0661 35.0543 91.9872 34.9857C91.9526 34.9456 91.9283 34.9063 91.9142 34.8682L91.8288 34.8548C91.5475 34.7129 90.9857 34.6616 90.5825 34.5454C90.3922 34.5117 90.1952 34.4923 90.0224 34.4903C89.5765 34.4654 89.1422 34.4545 88.6809 34.423C88.4606 34.4086 88.2302 34.3822 88.0032 34.3455C87.6791 34.2947 87.6451 34.2894 87.4569 34.1049C87.7491 34.1081 87.9807 34.0805 88.1126 34.0269C88.2446 33.9732 88.2687 33.8967 88.1809 33.8103C87.9398 33.6216 87.6852 33.4226 86.5946 33.2886C86.9502 33.282 87.2925 33.2688 87.62 33.2492C87.7152 33.245 87.7866 33.2312 87.8244 33.2095C87.8623 33.1879 87.8648 33.1595 87.8317 33.1281C87.7986 33.0967 87.7315 33.0639 87.6392 33.034C87.547 33.0042 87.4342 32.9786 87.3157 32.9609C86.7401 32.8542 86.1396 32.7827 85.5816 32.7546C85.1114 32.7422 84.6871 32.7492 84.138 32.7488L83.4898 32.6473C83.5005 32.6245 83.4053 32.5933 83.4295 32.5808C83.5942 32.4638 83.7759 32.3494 83.963 32.2237C83.6642 32.1558 83.4053 32.0739 83.216 31.9872C83.0268 31.9006 82.9147 31.8128 82.8928 31.7338C82.8766 31.71 82.8808 31.6883 82.9051 31.6703C82.9294 31.6522 82.9731 31.6383 83.0332 31.6294C83.2039 31.6141 83.3356 31.5849 83.4182 31.5441C83.5008 31.5033 83.5321 31.4519 83.5098 31.394L83.0057 31.1804C81.4882 31.028 79.9979 30.9192 78.5625 30.8558L77.2668 30.8079C77.1105 30.7508 77.1589 30.7257 77.306 30.7243C77.4531 30.7229 77.8668 30.7387 78.1557 30.7472C78.4052 30.7584 78.6268 30.7511 78.799 30.7259C78.9712 30.7007 79.0882 30.6585 79.1386 30.6033L78.7035 30.3598C78.7249 30.3142 78.7551 30.2496 78.9911 30.2539C79.1524 30.2486 79.2712 30.2257 79.3283 30.1887C79.3855 30.1518 79.3777 30.103 79.3063 30.0503C79.2954 30.0122 79.3117 29.9775 79.3544 29.9477C79.7034 29.9452 80.0506 29.9466 80.3672 29.935C80.5147 29.9311 80.6393 29.917 80.7324 29.8936C80.8255 29.8701 80.8851 29.838 80.9069 29.7992C80.9183 29.7614 80.8905 29.7183 80.8256 29.6734C80.7608 29.6285 80.6608 29.5831 80.5337 29.5409C80.0373 29.4886 79.5834 29.4879 79.2713 29.539C79.16 29.579 78.9813 29.6009 78.7587 29.6017C78.536 29.6025 78.2799 29.5823 78.0242 29.5436C77.7313 29.499 77.439 29.4794 77.1999 29.4883C76.9608 29.4972 76.7906 29.5341 76.7198 29.5922C76.4192 29.5696 76.1527 29.5524 75.8897 29.5275C75.5795 29.4961 75.2863 29.4869 75.0417 29.5008C74.6505 29.5106 74.2289 29.5049 73.7865 29.4837C72.5114 29.4309 71.2345 29.3819 69.9999 29.3599C69.6733 29.3536 69.3907 29.3705 69.0676 29.3567C68.7446 29.3428 68.489 29.3803 68.085 29.3048C68.0081 29.293 67.9306 29.2855 67.8588 29.2827C67.787 29.28 67.7229 29.2821 67.6713 29.2889C66.9619 29.3487 66.1301 29.3571 65.2248 29.3138C63.9848 29.3031 62.699 29.2731 61.4572 29.2663C61.093 29.2722 60.7489 29.2879 60.4283 29.3133C60.1844 29.3286 59.9288 29.339 59.6631 29.3444C59.4594 29.3492 59.2647 29.335 59.299 29.4179C59.3334 29.5008 59.0282 29.4489 58.8523 29.4336C58.248 29.3934 57.6303 29.339 57.0062 29.271C56.3913 29.197 55.7887 29.154 55.2347 29.1445C54.8345 29.1389 54.4219 29.16 53.9074 29.0468C53.927 29.005 53.9466 28.9632 54.0586 28.9195C53.639 28.7994 53.1603 28.696 52.662 28.618C52.1637 28.54 51.6602 28.4895 51.1932 28.4708L50.5491 28.2434C50.3905 28.2167 50.2286 28.1973 50.0732 28.1863C49.9179 28.1753 49.7723 28.173 49.6454 28.1794C49.5473 28.1827 49.4277 28.1743 49.3087 28.1556C49.1896 28.137 49.079 28.1094 48.9972 28.0779C48.8749 28.0379 48.7255 28.0034 48.5678 27.9787C48.41 27.954 48.2509 27.9402 48.1103 27.939C47.6678 27.9143 47.1954 27.8572 46.7415 27.7736C46.6237 27.7246 46.5499 27.674 46.5292 27.628C46.5085 27.582 46.5418 27.5426 46.6249 27.5147C46.759 27.4654 46.8343 27.4027 46.8462 27.3302C46.8581 27.2577 46.8065 27.1771 46.6943 27.0931C46.6369 27.0416 46.6177 26.9928 46.6379 26.9497C46.6581 26.9066 46.7173 26.87 46.8119 26.8423C47.165 26.714 47.0705 26.6421 46.4929 26.4292C46.3991 26.3938 46.2859 26.3606 46.1607 26.3319C46.0355 26.3031 45.901 26.2794 45.7656 26.2623C45.4479 26.2276 45.1346 26.2018 44.8313 26.1854C44.6608 26.1587 44.4858 26.1802 44.2893 26.1698C43.3067 26.1179 43.1629 26.0342 42.8446 25.8538L42.6127 25.7237C42.1826 25.6183 41.7122 25.5307 41.2353 25.4673C40.7585 25.4039 40.2872 25.3663 39.8553 25.3571C39.6836 25.3565 39.4862 25.3384 39.2934 25.3059C38.666 25.2063 38.0305 25.1374 37.4292 25.1037C37.0545 25.0847 36.6506 25.0357 36.266 24.9624C35.8814 24.8892 35.5324 24.7948 35.261 24.6907C35.0173 24.5969 34.6983 24.5128 34.3487 24.4499C33.9393 24.3858 33.9014 24.3105 34.13 24.2525C34.3586 24.1945 34.7414 24.1198 35.0813 24.0588C35.1995 24.0381 35.2728 24.0043 35.2929 23.9614C35.3131 23.9184 35.2793 23.868 35.1953 23.8156C35.1414 23.7259 35.132 23.6408 35.1675 23.5623C35.1864 23.5297 35.1733 23.4924 35.1291 23.4527C35.0849 23.4131 35.0106 23.3721 34.9111 23.3326C34.8117 23.293 34.6894 23.2558 34.5526 23.2235C34.4158 23.1912 34.2677 23.1644 34.1181 23.1451C33.487 23.0463 32.873 22.9501 32.2295 22.8779C31.9598 22.8438 31.6904 22.8016 31.4278 22.7523C30.8904 22.6304 30.3155 22.5293 29.7365 22.4548C29.4616 22.4216 29.193 22.3634 28.9886 22.2928C28.3439 22.1029 27.7498 21.9031 27.2172 21.6972C27.0888 21.6334 26.9208 21.5711 26.7238 21.5142C26.5268 21.4574 26.3049 21.4073 26.0721 21.367C25.8845 21.3376 25.7318 21.2729 25.5872 21.2298C25.4821 21.1302 25.4709 21.0379 25.5546 20.9619C25.6383 20.8858 25.8142 20.8283 26.0657 20.7948C26.3042 20.7547 26.5274 20.708 26.7336 20.6587C26.9822 20.6189 27.2777 20.5949 27.6091 20.5878C28.0016 20.5664 28.2919 20.5052 28.442 20.4123C27.3675 20.244 26.3456 20.0024 25.4038 20.0588L24.6881 19.906C24.7166 19.8452 24.7416 19.792 24.7647 19.7425C24.9349 19.6526 24.9881 19.5392 24.9197 19.4119C24.8633 19.3503 24.8684 19.2943 24.9344 19.2495C25.0005 19.2046 25.1251 19.1726 25.2957 19.1567C26.3063 18.9926 27.4749 18.8819 28.4226 18.6958C28.7198 18.6609 29.0676 18.645 29.4516 18.6489C29.823 18.6377 29.8074 18.5537 29.38 18.45C29.1401 18.3959 28.8956 18.344 28.6473 18.2945C27.5527 18.2863 27.1068 18.5346 25.8577 18.4655L25.2787 18.1382C25.1221 18.1331 24.9702 18.1311 24.8238 18.1322L22.7293 18.2652C22.5548 18.2719 22.419 18.2946 22.3373 18.3309C22.2556 18.3671 22.2312 18.4154 22.267 18.4702C22.2812 18.5373 22.2524 18.5989 22.1815 18.6526C22.1358 18.6903 22.1651 18.7403 22.2628 18.7918C22.483 18.9079 22.2004 18.9249 22.022 18.954C21.9764 18.9569 21.9238 18.9566 21.8672 18.9531C21.8107 18.9497 21.7514 18.9432 21.6927 18.934C21.634 18.9248 21.5771 18.9131 21.5253 18.8996C21.4735 18.8861 21.4278 18.871 21.3909 18.8552C21.0765 18.7448 20.8015 18.6283 20.4925 18.5065C20.7119 18.3899 20.4537 18.1985 20.7961 18.093C20.8344 18.0719 20.8497 18.0463 20.8411 18.0176C20.8326 17.9889 20.8002 17.9577 20.7462 17.9261C20.6068 17.8444 20.5404 17.7648 20.5537 17.6953C20.567 17.6257 20.6595 17.5687 20.822 17.53L20.8416 17.4882C20.4131 17.3477 20.5267 17.2227 20.3584 17.0739L19.9462 16.9768C18.9208 16.7427 18.919 16.7465 18.0362 16.7551C17.8582 16.6661 18.0843 16.6525 18.2539 16.6424L19.6738 16.5425C20.6022 16.4757 21.5575 16.4295 22.5946 16.4043C23.6317 16.379 24.7879 16.2949 25.8599 16.2343C25.9141 16.2296 25.9555 16.2203 25.9808 16.2073C26.006 16.1942 26.0143 16.1777 26.0049 16.1591C25.9623 16.1391 25.9066 16.1197 25.8418 16.1025C25.7769 16.0853 25.7047 16.0707 25.6305 16.0597C25.2893 16.0063 24.9393 15.9719 24.5758 15.9272L23.8981 15.8496L23.6897 15.7476C23.554 15.6855 23.4613 15.6098 23.2808 15.5653C23.132 15.532 22.9706 15.5068 22.8132 15.4922C22.6558 15.4776 22.5083 15.4741 22.386 15.4822C22.0469 15.5026 21.7402 15.532 21.4164 15.5589C21.0926 15.5857 20.9141 15.6148 20.6333 15.628C20.0629 15.6339 19.5115 15.6497 18.9818 15.6753C18.5355 15.7357 18.1228 15.8074 17.7462 15.8897C17.5112 15.9223 17.2915 15.9613 16.8903 15.9189C16.6999 15.8804 16.5358 15.8299 16.4269 15.7762C16.318 15.7226 16.2714 15.6693 16.2953 15.6258C16.3169 15.5918 16.3778 15.5648 16.4724 15.5475C16.567 15.5302 16.6921 15.5231 16.836 15.5269C17.2387 15.5206 17.6111 15.4996 17.9457 15.4641C18.4114 15.3998 18.9783 15.3721 19.6133 15.3826C19.8286 15.3918 19.973 15.3573 20.1614 15.346C20.3497 15.3347 20.5093 15.3067 20.7193 15.3273C21.3718 15.3805 21.6846 15.299 22.0756 15.246C22.208 15.2225 22.29 15.1845 22.3126 15.1362C22.3353 15.0879 22.2976 15.0312 22.2039 14.9723C22.0234 14.855 21.8027 14.7371 21.5451 14.6203C21.4125 14.5629 21.2426 14.5084 21.0488 14.4611C20.855 14.4137 20.6425 14.3749 20.428 14.3475C20.2996 14.2756 20.2311 14.205 20.2287 14.1419C20.2263 14.0789 20.2901 14.0254 20.4142 13.9863C20.7306 13.8972 21.0111 13.8065 21.7201 13.8563C22.0534 13.8753 22.3671 13.879 22.6487 13.8671C23.2733 13.8508 23.9938 13.8864 24.7423 13.9706C24.9359 13.9921 25.1262 14.0068 25.3077 14.0142C26.6016 14.0659 27.8344 14.0917 29.0708 14.1099C29.7258 14.1187 30.3862 14.116 31.0699 14.1415C32.6734 14.1968 34.1331 14.1684 35.6808 14.1864C36.4914 14.1957 37.217 14.1584 37.8194 14.0766C37.9367 14.0492 38.0375 14.0172 38.1205 13.981C37.7213 13.886 37.2828 13.8108 36.847 13.7625C36.4112 13.7143 35.9927 13.6946 35.6316 13.7055C35.4332 13.7321 35.1766 13.7369 34.8906 13.7195C34.6046 13.7021 34.3004 13.6631 34.0118 13.6068L34.8506 13.575C35.4069 13.5601 35.9766 13.5555 36.5175 13.5342C37.3769 13.4974 38.1734 13.4385 39.0633 13.4147C39.7818 13.3928 40.4248 13.3369 40.972 13.2486C41.3674 13.1842 41.8189 13.1385 42.3174 13.1125C42.6717 13.0986 42.6717 13.0986 42.8983 12.9669C42.7185 12.8816 42.4861 12.8697 42.2672 12.868C40.9547 12.8144 39.7056 12.805 38.5455 12.84C37.9601 12.8431 37.4408 12.8793 37.0125 12.9467C36.9077 12.9752 36.6393 12.9617 36.424 12.9525C35.7488 12.9384 35.1036 12.9425 34.4959 12.9646C33.6558 13.0016 32.7201 12.9928 31.7252 12.9387C31.5366 12.8724 31.7537 12.8779 31.7644 12.8551C32.535 12.8126 33.2903 12.7636 34.0761 12.7276C34.2909 12.7147 34.5206 12.7084 34.7624 12.7086C35.6653 12.7309 36.4177 12.669 36.9142 12.5315C36.9391 12.4783 37.2657 12.4846 37.4101 12.4501C37.4811 12.4202 37.5284 12.385 37.5506 12.3456C37.3403 12.2474 37.1025 12.2469 36.9195 12.2468C36.3884 12.2577 35.8774 12.2785 35.3891 12.309C34.9352 12.338 34.4327 12.3458 33.8953 12.3321C33.4987 12.3189 33.1596 12.3393 32.7594 12.3337C32.5424 12.322 32.3177 12.3033 32.0899 12.2778C32.3435 12.2094 32.6882 12.1673 33.0998 12.1545C33.4119 12.1136 33.8021 12.1013 33.852 11.9949C33.7046 11.9187 33.5404 11.9175 33.4085 11.9254C33.134 11.9251 32.8689 11.9299 32.6146 11.9398C32.0752 11.9614 31.4912 11.9617 30.8749 11.9407C30.5503 11.9328 30.2424 11.9352 29.9561 11.9477C29.3075 11.9645 28.6859 12.0017 28.092 12.0189C26.8754 12.0364 25.7659 12.0993 24.5969 12.1324C24.3367 12.1406 24.1035 12.1694 23.7606 12.1198C23.4177 12.0702 23.4025 12.0637 23.362 12.0329C23.266 11.9815 23.237 11.9316 23.2808 11.8937C23.3488 11.8583 23.4813 11.8385 23.6547 11.838C24.6996 11.7816 25.6908 11.7025 26.6219 11.601C27.0316 11.5807 27.3907 11.5392 27.6864 11.4781C27.921 11.4359 28.1992 11.4081 28.5124 11.3953C28.968 11.3648 29.4429 11.3425 29.9352 11.3284C30.1643 11.3209 30.359 11.2983 30.5081 11.2621C30.6571 11.2259 30.7574 11.1768 30.8029 11.1176L30.1994 10.9211C30.1046 10.9119 30.0105 10.904 29.9176 10.8973L24.908 11.0389L24.4119 11.0428C23.8682 11.0311 23.7353 11.0021 23.2195 10.7745C24.3966 10.7209 25.3219 10.5648 25.9033 10.3217C25.7636 10.2956 25.6203 10.2731 25.4769 10.255C24.5362 10.1975 23.647 10.1822 22.8434 10.2097C22.3661 10.2125 21.8754 10.205 21.3828 10.2013C21.5268 10.0892 22.0787 10.1226 22.4384 10.0973C23.2978 10.0578 24.0578 9.97613 24.6941 9.85495C24.9134 9.80771 25.1879 9.77749 25.5048 9.7657C25.822 9.76164 26.0869 9.73304 26.2766 9.6824C26.4663 9.63175 26.5749 9.5606 26.593 9.47512C26.6229 9.39773 26.6873 9.32582 26.7852 9.26045C26.612 9.1677 26.3368 9.07889 26.0115 9.01066C25.6862 8.94244 25.333 8.89951 25.0182 8.88991C24.3463 8.85172 23.6493 8.78921 22.9451 8.70395C22.5943 8.66095 22.2503 8.63627 21.9354 8.63151C21.6578 8.62785 21.3422 8.5968 21.0369 8.54308C20.7315 8.48937 20.4531 8.41594 20.2441 8.33401C19.962 8.23272 19.6988 8.1303 19.4355 8.02788C19.1723 7.92547 18.8668 7.79604 18.5596 7.67041C18.2886 7.65076 18.0248 7.63813 17.7717 7.6327C17.5747 7.6373 17.3449 7.62361 17.1094 7.59322C16.8738 7.56284 16.6423 7.51704 16.4423 7.46123C16.5596 7.40617 16.6923 7.35759 16.832 7.29381C16.6402 7.20958 16.5011 7.12368 16.4233 7.04135C16.3454 6.95902 16.3304 6.88198 16.3791 6.81492C16.4076 6.75412 16.1991 6.65211 16.127 6.57147C16.0343 6.50196 16.0169 6.43709 16.077 6.38536C16.1372 6.33364 16.2722 6.29747 16.4643 6.28161C16.7026 6.25234 16.8965 6.20826 17.0381 6.15117C17.0849 6.13635 17.1087 6.11606 17.1074 6.09214C17.1061 6.06823 17.0796 6.04146 17.0304 6.01428C16.9813 5.9871 16.9109 5.96037 16.8259 5.93655C16.7409 5.91274 16.6438 5.89258 16.5437 5.87793C16.2369 5.8364 15.9322 5.80948 15.6471 5.79871C15.1559 5.77891 14.6858 5.76648 14.2365 5.7614C13.7397 5.75376 13.187 5.70662 12.6346 5.62475C12.1399 5.54729 11.6965 5.47784 11.4546 5.32982C11.2128 5.1818 10.8261 5.18652 10.5287 5.07876C10.6957 4.98162 10.9926 4.91413 11.3894 4.8831C11.649 4.87202 11.8657 4.84294 12.0257 4.79773C12.1856 4.75252 12.2851 4.69218 12.318 4.62057L11.4153 4.3201C10.6943 4.17864 10.2954 4.28751 9.51647 4.2308L10.3191 4.11988C10.3352 4.10891 10.3413 4.09604 10.3369 4.08187C10.259 3.85753 10.135 3.80956 9.31453 3.68515L8.85403 3.61304L8.12518 3.52745C8.00846 3.48148 7.92773 3.43353 7.89105 3.38841C7.85437 3.34329 7.86302 3.30258 7.91616 3.27035C8.02294 3.21614 8.05541 3.14687 8.01058 3.06892C7.93988 3.01728 7.93406 2.96967 7.99408 2.93436C8.05411 2.89905 8.17621 2.87826 8.3392 2.87561C8.46928 2.8715 8.47893 2.81182 8.5497 2.77803C8.62001 2.73145 8.74036 2.69571 8.90253 2.67324C9.06471 2.65077 9.26488 2.64208 9.48949 2.64779C10.1517 2.65246 10.7738 2.63497 11.3447 2.59565L11.2424 2.57963C11.8375 2.61415 12.3938 2.61833 12.8843 2.59198C13.3759 2.55881 14.0067 2.58009 14.5288 2.55987C14.9539 2.56451 15.2775 2.5186 15.431 2.43189C15.5796 2.34911 16.1198 2.36843 16.5334 2.38425C16.7785 2.39449 17.0153 2.39883 17.2414 2.39721C17.5449 2.37848 17.9243 2.39614 18.3164 2.44726C18.4341 2.46297 18.55 2.47129 18.653 2.47141C19.6499 2.49289 20.6449 2.51818 21.6283 2.52939C21.8553 2.52293 22.1214 2.53773 22.3955 2.57203C22.5108 2.58693 22.6229 2.5931 22.7168 2.58971C24.2707 2.55564 26.0241 2.64257 27.5474 2.59556C27.732 2.58445 27.9364 2.58215 28.1548 2.58869C28.6455 2.61631 29.0717 2.59854 29.3685 2.53807C29.5287 2.50591 29.7341 2.48819 29.9715 2.48604C30.2089 2.48389 30.4732 2.49735 30.7475 2.52557C31.204 2.56294 31.6259 2.56699 31.9686 2.5373C32.6369 2.50987 33.3398 2.49859 34.0716 2.50355C34.2958 2.50835 34.4929 2.49769 34.6476 2.4724C34.8024 2.44711 34.9105 2.40786 34.9638 2.3577C34.784 2.27244 34.5875 2.26207 34.4009 2.26956C33.6777 2.25013 32.9563 2.2269 32.2466 2.21775C31.6113 2.1916 31.0018 2.1836 30.4269 2.19388C30.1415 2.20548 29.7854 2.17903 29.4362 2.12032C29.0082 2.04595 28.5675 2.00901 28.203 2.01695C27.9328 2.01893 27.6476 2.01252 27.3515 1.99783C27.162 1.98012 26.9678 1.94969 26.7887 1.90969C26.7176 1.89232 26.6403 1.87771 26.5616 1.8668C26.483 1.85589 26.4047 1.84893 26.3319 1.84635C26.259 1.84376 26.1931 1.84562 26.1384 1.8518C26.0837 1.85798 26.0415 1.86836 26.0143 1.88225C25.7402 1.99842 25.1272 1.93914 24.6023 1.92629C23.8156 1.72967 23.2302 1.84604 22.495 1.73499C22.4369 1.72763 22.3796 1.72317 22.3266 1.72189C22.2737 1.72062 22.2263 1.72256 22.1872 1.72758C20.7645 1.79443 19.1063 1.73872 17.6125 1.7618C17.4477 1.76518 17.2565 1.75361 17.0606 1.72841C15.78 1.56163 14.5488 1.51428 13.6077 1.59563C13.4932 1.60295 13.3629 1.60327 13.2228 1.59655C12.5793 1.53026 11.964 1.50384 11.4281 1.51947C10.5883 1.51442 9.78084 1.51852 8.92755 1.5032C8.33934 1.4814 7.82333 1.50469 7.43121 1.57075C7.41874 1.59735 7.15754 1.56869 6.95745 1.56591C6.84238 1.49894 6.74261 1.43844 6.62398 1.37907C6.51793 1.30561 6.35906 1.23128 6.1582 1.16111C5.95734 1.09094 5.7192 1.02658 5.45982 0.972381C5.01636 0.902934 4.97201 0.802158 5.28232 0.765082C6.08213 0.642419 7.08786 0.592215 8.22556 0.618153C9.17661 0.620226 10.1447 0.624975 11.1093 0.63732C11.6719 0.647911 12.2649 0.671436 12.8123 0.675556C12.9969 0.684607 13.1867 0.697943 13.3794 0.715424C13.616 0.740771 13.8456 0.754582 14.0561 0.756115C14.7318 0.734769 15.4858 0.753365 16.2823 0.811013C16.574 0.823585 16.8541 0.82782 17.1185 0.823661C17.7439 0.808013 18.4219 0.819528 19.1346 0.857904C19.5776 0.879543 20.007 0.890858 20.4187 0.891727C20.564 0.894093 20.6824 0.875914 20.8224 0.889681C22.0547 1.03372 22.9274 0.929681 24.0365 0.985068C24.5756 1.00051 25.0906 1.00055 25.5743 0.9852C26.5183 0.985942 27.4887 1.00173 28.4814 1.03251C29.7942 1.08307 31.0107 1.06553 32.2642 1.0864C32.5117 1.09079 32.7506 1.09004 32.9793 1.08416C34.0917 1.04531 35.2999 1.05355 36.5745 1.10868C36.8639 1.11665 37.1238 1.1069 37.338 1.08008C37.5522 1.05325 37.7161 1.00991 37.8193 0.952773C37.8629 0.913557 37.8346 0.862621 37.7398 0.80979C37.5825 0.74232 37.4049 0.676215 37.2098 0.612561L30.1148 0.398968C29.8168 0.387814 29.5262 0.381809 29.2445 0.380979C28.4159 0.379122 27.5618 0.362505 26.6864 0.331211C25.8214 0.301817 24.9951 0.307035 24.157 0.298185C23.9102 0.29522 23.6568 0.288226 23.398 0.277221C21.6482 0.190121 19.942 0.136923 18.2914 0.118005C17.5969 0.115321 16.8467 0.075348 16.1388 0.0623916C15.4309 0.0494352 14.4627 0.044691 13.6229 0.0396414L11.0229 0.0404168C10.5115 0.0378389 10.0135 0.0455301 9.51738 0.0494237C8.9153 -0.228442 8.70782 -0.293572 7.9044 -0.41531C7.62955 -0.460215 7.34997 -0.487014 7.09846 -0.492566C6.30092 -0.4706 5.30022 -0.562039 4.54391 -0.549933C4.08755 -0.555904 3.7003 -0.525035 3.42182 -0.460487C3.18008 -0.409829 2.90364 -0.369745 2.59678 -0.34084C1.75618 -0.578547 1.6821 -0.732932 2.31442 -0.79301C2.48574 -0.806977 2.72172 -0.802656 2.84543 -0.832237C2.91641 -0.850251 3.01339 -0.860556 3.12862 -0.862336C3.24385 -0.864117 3.37415 -0.857329 3.5093 -0.842499C3.93586 -0.8036 4.33567 -0.79445 4.66861 -0.815973C4.98195 -0.844456 5.36603 -0.843321 5.78382 -0.812669C6.09083 -0.76459 6.36068 -0.832478 6.62618 -0.852092C6.89169 -0.871706 7.10957 -0.906938 7.52426 -0.854235C7.6002 -0.843742 7.67559 -0.837442 7.74465 -0.835821C7.81371 -0.834199 7.8746 -0.837298 7.92266 -0.84488C8.36805 -0.878823 8.89954 -0.875255 9.47397 -0.834472C10.355 -0.794339 11.1816 -0.792835 11.9251 -0.830009C12.3702 -0.862535 12.7497 -0.920219 13.0488 -1.00081C13.1303 -1.02776 13.2513 -1.04392 13.4003 -1.04774C14.1484 -1.03093 14.9607 -0.967647 15.7848 -0.86198C16.0953 -0.81964 16.4054 -0.786148 16.7084 -0.762221C17.3312 -0.709066 17.9336 -0.67928 18.4977 -0.673746C19.3174 -0.672868 20.1709 -0.652416 21.0505 -0.612576C21.5933 -0.590393 22.1164 -0.582207 22.6135 -0.588104C23.1244 -0.590884 23.6699 -0.573962 24.2376 -0.537733C24.8022 -0.50821 25.2998 -0.52522 25.6703 -0.586705C25.7923 -0.619837 25.8906 -0.659181 25.9633 -0.704002C25.1366 -0.849849 24.2817 -0.923972 23.5706 -0.911442C23.3005 -0.921103 23.0762 -0.91135 22.7916 -0.968159L22.7827 -0.949158C22.7261 -0.936828 22.6406 -0.933918 22.5427 -0.940986C22.4447 -0.948053 22.341 -0.9646 22.2515 -0.987478C22.2853 -1.05969 22.3174 -1.1281 22.3405 -1.17751C22.8823 -1.16879 23.4084 -1.1695 23.916 -1.17963C24.344 -1.19421 24.9249 -1.06652 25.2953 -1.11458C26.0177 -1.05448 26.4777 -1.13747 27.1256 -1.11352C27.7734 -1.08957 28.487 -1.01046 29.1348 -0.986519C29.7002 -0.973377 30.2491 -0.970522 30.7785 -0.977963C30.9613 -0.988408 31.172 -0.985958 31.3976 -0.970762C31.7149 -0.942171 32.01 -0.93738 32.249 -0.956941C32.4881 -0.976502 32.6615 -1.01963 32.7493 -1.08137C32.6666 -1.1392 32.5551 -1.21377 32.4266 -1.29102C32.6631 -1.35449 33.0223 -1.38122 33.4509 -1.36722L34.0565 -1.37028C34.217 -1.36861 34.3397 -1.38577 34.3992 -1.41821C34.4587 -1.45066 34.4505 -1.4959 34.3762 -1.54459C33.2278 -1.7897 33.1856 -1.81672 32.3427 -1.65906L31.2236 -1.73232L31.2425 -1.73345ZM185.838 25.0181L185.818 25.0599L185.839 25.0142L186.027 25.0436L186.039 25.017L185.838 25.0181ZM158.597 6.69413C158.332 6.64853 158.065 6.60659 157.796 6.5686C157.726 6.56271 157.66 6.56137 157.604 6.56472C157.548 6.56806 157.504 6.57597 157.476 6.58779C157.454 6.6334 157.604 6.66505 157.741 6.68641C157.913 6.71517 158.088 6.73345 158.25 6.73936C158.411 6.74527 158.552 6.73859 158.659 6.72002L158.813 6.70338L158.597 6.69413ZM22.0091 17.8097C22.1836 17.8174 22.3492 17.8187 22.5017 17.8135C23.178 17.7766 23.8256 17.723 24.519 17.6888C25.3939 17.602 26.3993 17.5666 27.4974 17.5841C27.9264 17.5926 28.2888 17.5644 28.5424 17.5029C28.6942 17.4699 28.8901 17.4507 29.1182 17.4463L32.0212 17.3461C32.2006 17.3253 32.3558 17.2961 32.483 17.2593C32.2271 17.2192 32.0566 17.1925 31.9542 17.1765C31.7419 17.172 31.5594 17.1842 31.425 17.2119C31.2807 17.2589 31.0367 17.2775 30.7415 17.264C30.4435 17.2528 30.1529 17.2468 29.8712 17.246C29.3391 17.2483 28.8035 17.2583 28.2697 17.2644C28.062 17.3951 27.449 17.3358 26.9241 17.3229L26.5185 17.3288C25.193 17.3965 23.9268 17.4897 22.7261 17.6079C22.4941 17.6279 22.2941 17.6598 22.1325 17.7026C22.0716 17.736 22.0521 17.7776 22.0755 17.8242L21.9903 17.8109L22.0091 17.8097ZM81.202 30.3023C81.5236 30.3112 81.8585 30.3295 82.2017 30.3569C82.4661 30.3848 82.7241 30.4018 82.9654 30.4071C84.3173 30.4364 85.7262 30.5041 87.173 30.6091C87.3622 30.6251 87.544 30.6329 87.7115 30.6323L88.8957 30.6056C89.2689 30.5906 89.276 30.5754 89.0043 30.3738C88.7789 30.3346 88.5509 30.2989 88.3221 30.2669C88.1857 30.2455 87.964 30.2108 87.912 30.2435C87.5956 30.3326 87.0185 30.2749 86.5331 30.256C85.1279 30.2073 83.6786 30.1353 82.2599 30.0764C81.96 30.0619 81.6695 30.0546 81.3914 30.0546C81.2188 30.0515 81.0614 30.0572 80.9258 30.0714C80.8861 30.0729 80.853 30.0771 80.8284 30.0838C80.8039 30.0905 80.7886 30.0995 80.7835 30.1103C80.7785 30.1211 80.7838 30.1334 80.7991 30.1463C80.8144 30.1593 80.8394 30.1726 80.8723 30.1854C80.9884 30.2303 81.1225 30.2733 81.2702 30.313L81.202 30.3023ZM91.4958 1.03641L92.8801 1.0125C93.0461 1.00994 93.1869 0.983029 93.3645 0.994537C94.3124 1.03101 95.19 1.02085 95.9601 0.964492C96.2223 0.941494 96.529 0.936894 96.8635 0.950949C97.8875 0.992596 98.8536 0.994311 99.7355 0.956041C100.305 0.948361 100.839 0.922564 101.328 0.879035C101.365 0.86893 101.389 0.855213 101.397 0.838816C101.404 0.822419 101.396 0.803729 101.372 0.784021C101.366 0.771571 101.349 0.758176 101.323 0.744764C101.297 0.731351 101.262 0.718233 101.221 0.706321C101.179 0.69441 101.132 0.683987 101.083 0.675764C101.034 0.667541 100.984 0.661712 100.937 0.658689C100.319 0.599768 99.7327 0.579243 99.2255 0.598777C98.7554 0.622149 98.249 0.628988 97.7147 0.619187C97.2033 0.616609 96.8563 0.692819 96.2245 0.634667C95.9572 0.615519 95.7215 0.621823 95.557 0.652525C95.226 0.703412 94.7642 0.706242 94.2534 0.660511C93.9479 0.637368 93.6558 0.627442 93.3884 0.631115C92.7398 0.647845 92.1199 0.681318 91.5189 0.713663C91.3295 0.721145 91.1266 0.722178 90.9133 0.716737L87.9039 0.653403C87.1806 0.633975 86.4592 0.610746 85.7495 0.60159C85.169 0.581709 84.6289 0.587937 84.148 0.62005C83.6354 0.653804 83.0763 0.667506 82.4812 0.6609C81.5571 0.679371 80.6384 0.686437 79.6326 0.683952C78.9911 0.68548 78.3344 0.680539 77.6641 0.665324C77.325 0.645742 77.0372 0.66169 76.8559 0.710097C76.7457 0.74995 76.4862 0.717482 76.2709 0.708233C75.1222 0.61909 74.0449 0.597968 73.1143 0.646337C72.9955 0.654219 72.865 0.657073 72.7258 0.654849C71.8295 0.653188 70.9009 0.642384 70.0404 0.642265C69.8139 0.646022 69.6007 0.656334 69.4035 0.67307C69.4246 0.700373 69.4848 0.729966 69.5716 0.755711C69.6584 0.781455 69.7652 0.801377 69.8697 0.811341C70.6834 0.88762 71.4692 0.927915 72.1938 0.930537C73.4001 0.92082 74.6636 0.942665 75.9713 0.99584C76.986 1.04945 77.9112 1.03816 78.6781 0.962818C79.2775 0.9066 80.0573 0.927752 80.8836 1.02264C81.2372 1.06796 81.5804 1.08609 81.8662 1.07453C82.1413 1.05938 82.457 1.06305 82.7949 1.08534C83.5071 1.12772 84.192 1.14738 84.8362 1.14393C85.466 1.12833 86.0535 1.08571 86.7004 1.07278C87.3472 1.05985 88.3323 1.06726 89.1299 1.0453C89.9274 1.02333 90.7161 1.02037 91.4958 1.03641ZM34.1352 -1.18662C34.2083 -1.06911 34.4669 -0.995966 34.7452 -0.964632C35.7044 -0.825496 36.6528 -0.766289 37.431 -0.796947C37.8514 -0.83971 38.4119 -0.823249 39.0022 -0.750797C39.6896 -0.675483 40.3321 -0.662992 40.8165 -0.715528C40.9351 -0.724708 41.026 -0.744113 41.081 -0.772017C41.0917 -0.794821 41.1112 -0.836626 41.1148 -0.844227C41.0639 -0.863504 41.0015 -0.881365 40.9324 -0.896434C40.8633 -0.911502 40.7893 -0.923373 40.7162 -0.931133L37.5387 -1.06565L36.985 -1.09525C35.9736 -1.17281 35.0099 -1.2037 34.1352 -1.18662ZM40.3852 0.673331C40.8812 0.865219 40.8829 0.86141 41.1369 0.905276C42.3626 1.08748 43.5875 1.18584 44.6657 1.18864C44.9054 1.18809 45.1088 1.16957 45.2586 1.13463C45.3358 1.1299 45.3849 1.11485 45.3952 1.09278C45.4055 1.07071 45.3763 1.0434 45.3139 1.01681L44.9195 0.88163C44.2034 0.823104 43.4975 0.776602 42.8061 0.742403C42.0012 0.702019 41.2879 0.70046 40.4534 0.684009L40.3852 0.673331ZM81.1425 29.4526C81.6046 29.7167 81.6064 29.7129 82.38 29.781C82.9192 29.8293 83.442 29.8576 83.9334 29.8652C84.5336 29.8735 85.1492 29.8883 85.7477 29.9005C85.8938 29.9089 86.0177 29.9019 86.0952 29.8809C86.1727 29.8598 86.1984 29.8263 86.1672 29.7867C86.0886 29.7437 85.9658 29.7021 85.8186 29.6687C85.6714 29.6353 85.5085 29.612 85.3563 29.6026L85.0297 29.5963C84.6331 29.5831 84.2212 29.5635 83.8381 29.5606C83.5895 29.5716 83.3015 29.5631 82.9967 29.5359C82.6918 29.5087 82.3783 29.4634 82.0809 29.4038L81.1425 29.4526ZM42.8527 -0.841313C42.9761 -0.795577 43.1156 -0.751771 43.2676 -0.711064C43.8562 -0.598231 44.4791 -0.534147 45.0142 -0.531374C45.2673 -0.524385 45.4987 -0.54934 45.7563 -0.513076C46.2183 -0.464616 46.6661 -0.438801 47.0755 -0.437031C47.0755 -0.437031 47.1903 -0.447614 47.2279 -0.449873L47.3063 -0.617097C47.1125 -0.655836 46.9104 -0.687485 46.7093 -0.710585C46.0345 -0.755075 45.3714 -0.785491 44.71 -0.819709C44.0486 -0.853928 43.818 -0.869646 43.3855 -0.884343C43.1926 -0.876264 43.0141 -0.861851 42.8527 -0.841313ZM28.2385 19.948L29.1217 20.2902C29.4075 20.32 29.6744 20.3254 29.882 20.3056C30.0895 20.2858 30.2263 20.2419 30.2715 20.1806C30.3442 20.152 30.3515 20.1095 30.2918 20.0621C30.2321 20.0147 30.11 19.9661 29.9512 19.9265C29.7984 19.8795 29.6239 19.8374 29.4386 19.8028C29.2533 19.7682 29.0611 19.7417 28.8739 19.7252L28.2385 19.948ZM35.5915 18.2438C35.0139 18.1857 34.4615 18.162 33.9764 18.1744C33.6707 18.2084 33.2566 18.1975 32.8189 18.1441C32.0229 18.0376 31.2555 18.0081 30.6788 18.0619C30.6788 18.0619 30.6573 18.1075 30.5596 18.1207C30.4618 18.134 30.8496 18.1661 30.9348 18.1795C31.5603 18.2122 32.1893 18.2372 32.7331 18.249C33.0707 18.2485 33.4277 18.2592 33.7982 18.2811C34.3078 18.3149 34.7912 18.3258 35.2293 18.3135C35.2293 18.3135 35.3989 18.3034 35.5898 18.2476L35.5915 18.2438ZM97.2788 0.416305C97.003 0.351845 96.7038 0.299454 96.4038 0.263069C96.1037 0.226683 95.8107 0.207247 95.5465 0.206212C95.3442 0.202849 95.1806 0.219868 95.0814 0.25458C94.9822 0.289291 94.9532 0.339714 94.999 0.397874C95.2037 0.429927 95.4765 0.472662 95.63 0.496702C96.1621 0.494349 96.616 0.46344 97.2788 0.416305ZM148.925 5.84837C148.703 5.79647 148.459 5.7568 148.221 5.73387C147.982 5.71095 147.759 5.70569 147.576 5.71871C147.481 5.72436 147.545 5.78332 147.529 5.81752C147.519 5.82528 147.519 5.83492 147.53 5.84545C147.54 5.85598 147.561 5.867 147.59 5.87735C147.619 5.88771 147.655 5.89702 147.694 5.90432C147.733 5.91161 147.773 5.91662 147.811 5.91881C148.052 5.94116 148.278 5.94782 148.471 5.93818C148.664 5.92854 148.817 5.90291 148.917 5.86357L148.925 5.84837ZM152.385 6.59016C152.351 6.55954 152.278 6.52763 152.18 6.50027C152.081 6.47291 151.965 6.45194 151.851 6.44121C151.649 6.43977 151.466 6.44826 151.308 6.46637C151.136 6.48033 151.26 6.56898 151.491 6.62158C151.59 6.64269 151.694 6.65916 151.798 6.66968C151.901 6.68019 151.999 6.68446 152.086 6.68215C152.172 6.67984 152.244 6.671 152.295 6.65635C152.347 6.64171 152.376 6.62164 152.381 6.59776L152.385 6.59016ZM51.8358 -0.515625C51.3195 -0.625031 50.9221 -0.597508 50.485 -0.64148C50.048 -0.685452 49.9403 -0.690079 49.9988 -0.619715C50.0574 -0.549352 50.357 -0.563622 50.5446 -0.53424C50.7981 -0.495254 51.0531 -0.472867 51.2812 -0.469579C51.5092 -0.466291 51.7012 -0.482234 51.8358 -0.515625ZM159.415 17.996C159.142 17.9714 158.874 17.9541 158.615 17.9442C158.581 17.9544 158.56 17.9677 158.553 17.9834C158.546 17.999 158.552 18.0167 158.573 18.0354C158.573 18.0354 158.748 18.0914 158.85 18.1074C159.227 18.1624 159.246 18.0837 159.415 17.996ZM198.064 28.1892C198.249 28.2631 198.335 28.3133 198.483 28.3487C198.552 28.361 198.622 28.37 198.689 28.3749C198.757 28.3798 198.819 28.3806 198.873 28.3771C198.938 28.3558 198.953 28.3233 198.916 28.2859C198.916 28.2859 198.727 28.2196 198.655 28.2166C198.451 28.2009 198.252 28.1917 198.064 28.1892ZM43.0482 -1.14115C42.6559 -1.20258 42.2806 -1.26135 42.009 -1.18966C42.632 -1.1125 42.632 -1.1125 43.0482 -1.14115ZM49.4019 -0.439866C49.0058 -0.571251 48.7733 -0.583174 48.5832 -0.568078C48.5428 -0.564276 48.516 -0.555802 48.507 -0.543942C48.498 -0.532082 48.5072 -0.51748 48.5332 -0.502345C48.5592 -0.487209 48.6006 -0.472365 48.6511 -0.460057C48.7017 -0.447748 48.7586 -0.438645 48.8133 -0.434127C49.0199 -0.430345 49.2169 -0.432265 49.4019 -0.439866ZM69.7893 -0.384308C69.7982 -0.403311 69.8089 -0.426115 69.7066 -0.442141C69.6798 -0.450277 69.6483 -0.457273 69.6154 -0.46243C69.5825 -0.467588 69.5492 -0.470721 69.519 -0.471518C69.519 -0.471518 69.5083 -0.448714 69.5011 -0.433512L69.7893 -0.384308ZM83.9468 31.1646L83.719 31.182L83.8213 31.198L84.0914 31.2076L83.9468 31.1646ZM164.168 6.29364C164.082 6.28029 163.997 6.26693 163.985 6.29353C163.967 6.29765 163.956 6.3036 163.952 6.31088C163.949 6.31815 163.953 6.32653 163.965 6.33534C163.965 6.33534 164.085 6.35404 164.136 6.36205L164.168 6.29364ZM150.886 6.50642C150.83 6.50489 150.78 6.50668 150.737 6.51166C150.737 6.51166 150.727 6.53446 150.727 6.53446L150.897 6.56117L150.886 6.50642ZM35.1411 11.9397C35.0752 11.9259 35.0054 11.9149 34.9364 11.9077L34.8511 11.8943C34.8511 11.8943 34.9428 11.9331 34.9939 11.9412C35.0451 11.9492 35.0864 11.9393 35.1411 11.9397Z" fill="#F54748"/>
</g>
</svg>
