<svg width="42" height="11" viewBox="0 0 42 11" fill="none" xmlns="http://www.w3.org/2000/svg">
<path fill-rule="evenodd" clip-rule="evenodd" d="M3.96177 1.25769C3.16259 0.563113 1.95164 0.647998 1.25717 1.44727V1.44727C0.562827 2.2464 0.647691 3.45708 1.44673 4.15153L7.2335 9.18084L8.61596 10.3828C9.44971 11.1077 10.7133 11.0193 11.4379 10.1853L12.6404 8.80134L14.2799 6.91699C15.0047 6.08395 16.2675 5.99591 17.1008 6.72033L19.9314 9.18084L21.3153 10.3832C22.1493 11.1079 23.4129 11.019 24.1373 10.1847L25.3383 8.80134L26.9741 6.91989C27.6988 6.08638 28.9619 5.99807 29.7955 6.72263L32.6236 9.18084L34.0075 10.3832C34.8415 11.1079 36.1051 11.019 36.8294 10.1847L38.0305 8.80134L40.546 5.90899C41.2409 5.10995 41.1562 3.89878 40.3568 3.20423V3.20423C39.5579 2.51002 38.3474 2.59482 37.653 3.39364L36.4502 4.77736C35.7256 5.61095 34.4625 5.69935 33.6288 4.97482L28.811 0.787595C28.3105 0.352635 27.5522 0.405791 27.1173 0.906317L25.3913 2.89272C25.3908 2.89329 25.3912 2.89417 25.392 2.89417V2.89417C25.3927 2.89417 25.3931 2.89505 25.3927 2.89561L23.3692 5.22435C22.8594 5.81103 21.9705 5.87333 21.3839 5.36348L16.7221 1.31197C15.8884 0.58739 14.6252 0.675859 13.9006 1.50957L13.5202 1.94733L11.0601 4.77736C10.3355 5.61095 9.0724 5.69935 8.23874 4.97482L3.96177 1.25769Z" fill="#EB5757"/>
</svg>
