<svg width="204" height="181" viewBox="0 0 204 181" fill="none" xmlns="http://www.w3.org/2000/svg">
<g filter="url(#filter0_f_3120_189)">
<path d="M84.653 108.269C81.3753 108.489 78.8449 107.385 77.718 104.161C76.5977 100.968 77.9459 98.3422 80.7322 95.8106C77.3507 94.6905 74.7011 93.0561 74.6751 89.2358C74.6536 85.9597 76.4652 83.8646 79.3414 82.5261C79.6435 82.4455 79.9393 82.3749 80.2414 82.2943C81.7954 82.1397 83.5098 82.1101 84.5765 83.1179C86.5299 84.955 86.7958 83.6166 87.9584 82.0305C89.5556 79.8332 89.9098 78.7566 87.2264 77.6432C86.2508 77.2322 85.7381 75.7827 85.0223 74.8071C84.9326 74.3778 84.8429 73.9485 84.7469 73.5293C84.877 70.4563 85.926 67.8849 88.9423 66.5342C92.2889 65.0365 94.8972 66.3127 97.406 69.0003C98.593 65.4017 100.425 62.722 104.187 62.4899C107.405 62.3026 109.376 64.0257 110.528 66.8488C110.591 67.1508 110.645 67.4471 110.708 67.7492C110.442 69.1294 110.626 70.8933 109.834 71.8014C107.704 74.2586 109.242 74.511 110.945 75.7519C112.994 77.2444 113.56 76.7407 114.71 74.772C115.357 73.6508 116.882 73.034 118.012 72.1783C118.33 72.0934 118.655 71.9984 118.973 71.9136C122.285 71.617 124.796 72.7511 125.942 75.9452C127.078 79.1335 125.8 81.7744 123.026 84.2857C126.237 85.5103 129.01 87.0112 129.036 90.8734C129.057 94.1494 127.265 96.2562 124.434 97.6498C124.068 97.7474 123.709 97.8349 123.353 97.9384C122 97.7288 120.309 97.9535 119.366 97.2149C117.328 95.6184 116.848 96.4517 115.657 98.4232C114.503 100.334 113.832 101.177 116.225 102.267C117.319 102.764 117.871 104.362 118.661 105.452C118.738 105.818 118.814 106.183 118.9 106.555C118.934 109.853 117.704 112.481 114.487 113.793C111.292 115.091 108.733 114.053 106.431 111.268C105.052 114.792 103.157 117.615 99.238 117.737C96.2269 117.828 94.3515 116.163 93.163 113.568C93.0666 113.107 92.9799 112.651 92.8773 112.2C92.8448 109.876 93.7295 107.843 95.2412 106.08C92.4017 103.859 89.7982 102.405 87.4552 106.858C87.1729 107.395 86.2889 107.622 85.6768 107.987C85.3208 108.09 84.9869 108.18 84.653 108.269ZM105.457 107.374C104.397 105.189 110.282 103.912 106.373 101.514C104.381 100.292 103.463 100.721 102.269 102.677C99.7505 106.773 105.465 104.921 105.457 107.374ZM84.6184 94.8069C86.6666 93.9244 88.2954 99.9524 90.7448 94.5228C92.6874 90.2021 88.3129 91.8818 87.6185 90.0444C87.1287 92.0385 85.6841 93.0787 84.6184 94.8069ZM119.213 85.6393C114.257 83.3281 114.36 83.4182 113.521 84.4647C110.623 88.1087 114.278 88.4926 116.086 90.4357C116.571 88.2164 118.011 87.0346 119.213 85.6393ZM98.3649 72.7059C97.5176 74.6359 96.7314 76.2558 95.4028 77.8107C97.4294 77.3872 98.1466 81.9044 101.044 78.2185C104.623 73.6541 98.2709 75.1483 98.3649 72.7059ZM100.241 88.7146C99.6701 89.7986 97.9898 90.8347 100.282 91.6413C101.442 92.0534 102.291 93.623 103.514 91.2822C104.348 89.6914 104.642 89.0505 102.91 88.1531C101.611 87.4761 100.798 86.8032 100.241 88.7146Z" fill="#FFE8C8"/>
<path d="M110.155 68.3126C110.092 68.0105 110.039 67.7142 109.976 67.4121C110.098 67.1529 110.296 66.8985 110.342 66.6346C110.864 63.1885 112.435 60.5871 116.102 60.0619C119.085 59.6353 121.312 60.9717 122.286 63.7837C123.485 67.2322 121.84 69.8029 118.983 71.8326C118.764 71.9916 118.614 72.2752 118.434 72.4994C118.116 72.5843 117.792 72.6792 117.474 72.764C114.375 72.315 111.946 70.8144 110.155 68.3126Z" fill="#FFE8C8"/>
<path d="M119.467 107.117C119.39 106.751 119.314 106.385 119.228 106.014C119.765 102.883 121.344 100.397 123.918 98.5015C124.284 98.404 124.643 98.3164 125 98.213C125.935 98.4334 126.889 98.5816 127.788 98.9042C130.33 99.8207 131.913 101.572 131.896 104.464C131.877 107.104 130.614 109.128 128.24 110.34C125.638 111.664 123.322 111.065 121.346 109.242C120.646 108.623 120.088 107.84 119.467 107.117Z" fill="#FFE8C8"/>
<path d="M93.4336 111.649C93.53 112.11 93.6168 112.566 93.7195 113.017C93.5086 113.694 93.2914 114.381 93.0709 115.053C92.1459 117.935 90.3719 119.927 87.2953 120.186C84.4734 120.418 82.3969 119.118 81.3959 116.498C80.3132 113.648 81.3727 111.208 83.6211 109.156C84.1492 108.671 84.6965 108.198 85.2246 107.713C85.5585 107.624 85.8986 107.525 86.2325 107.435C89.2509 107.822 91.6158 109.298 93.4336 111.649Z" fill="#FFE8C8"/>
<path d="M79.6795 81.743C79.3774 81.8236 79.0816 81.8941 78.7795 81.9747C75.3274 81.2004 71.9286 80.3196 71.8165 75.809C71.7461 73.1841 72.9937 71.1224 75.3832 69.9058C79.4673 67.8426 81.8886 70.3103 84.2062 72.9651C84.296 73.3944 84.3857 73.8236 84.4818 74.2428C83.8296 77.3458 82.1712 79.811 79.6795 81.743Z" fill="#FFE8C8"/>
<path d="M120.936 123.697C119.265 126.501 115.322 127.553 112.71 125.9C110.233 124.328 109.452 120.634 111.051 117.967C112.729 115.152 116.656 114.105 119.277 115.764C121.739 117.339 122.519 121.033 120.936 123.697Z" fill="#FFE8C8"/>
<path d="M64.8843 96.4302C62.251 94.8751 61.4618 90.9397 63.2522 88.2632C64.9576 85.7016 68.6211 84.7578 71.1294 86.2371C73.7627 87.7922 74.5519 91.7275 72.7615 94.4041C71.0657 96.9714 67.3926 97.9095 64.8843 96.4302Z" fill="#FFE8C8"/>
<path d="M76.0603 107.005C74.4558 109.808 70.5419 110.919 67.9082 109.322C65.4187 107.813 64.5935 104.147 66.1163 101.475C67.7208 98.6717 71.6348 97.5603 74.2685 99.1573C76.7676 100.673 77.5991 104.328 76.0603 107.005Z" fill="#FFE8C8"/>
<path d="M132.196 93.7859C129.65 92.0062 129.125 88.0089 131.098 85.4432C133.004 82.9623 136.733 82.2527 139.103 83.9116C141.649 85.6914 142.168 89.6987 140.201 92.2544C138.304 94.7411 134.575 95.4507 132.196 93.7859Z" fill="#FFE8C8"/>
<path d="M90.6769 54.1756C93.2004 55.5669 94.1653 59.1784 92.7324 61.9189C91.2525 64.756 87.3782 66.0162 84.6755 64.5301C82.0016 63.0614 81.1108 59.1617 82.8369 56.4184C84.4749 53.8161 88.1247 52.7669 90.6769 54.1756Z" fill="#FFE8C8"/>
<path d="M137.429 78.9183C135.691 81.6817 131.738 82.6441 129.195 80.9221C126.762 79.2802 126.074 75.5865 127.724 72.9641C129.463 70.2007 133.416 69.2383 135.959 70.9603C138.392 72.6022 139.074 76.306 137.429 78.9183Z" fill="#FFE8C8"/>
<path d="M103.78 51.2135C106.397 52.8147 107.129 56.757 105.3 59.4103C103.55 61.9586 99.8671 62.849 97.3998 61.3251C94.782 59.7239 94.0501 55.7816 95.8694 53.1224C97.6229 50.59 101.312 49.6896 103.78 51.2135Z" fill="#FFE8C8"/>
<path d="M107.982 126.802C106.291 129.595 102.357 130.611 99.7677 128.944C97.3031 127.352 96.5574 123.665 98.1696 121.019C99.8603 118.227 103.784 117.205 106.377 118.888C108.842 120.48 109.584 124.151 107.982 126.802Z" fill="#FFE8C8"/>
<path d="M69.8459 114.128C72.0385 111.486 74.5579 110.89 77.3075 112.599C79.9321 114.232 80.3927 117.76 78.3207 120.336C76.1477 123.031 73.5057 123.442 70.8918 121.579C68.2266 119.671 68.1495 117.015 69.8459 114.128Z" fill="#FFE8C8"/>
<path d="M125.924 122.504C123.333 120.585 122.665 118.112 124.353 115.11C125.964 112.256 129.499 111.346 132.026 113.156C134.662 115.045 135.176 117.703 133.307 120.568C131.436 123.458 128.814 123.923 125.924 122.504Z" fill="#FFE8C8"/>
<path d="M69.4493 81.0882C67.4394 83.8403 64.9388 84.7677 62.1001 83.0741C59.2903 81.3981 58.6873 78.7555 60.4851 75.7914C62.2861 72.8433 64.9349 72.103 67.7637 73.7488C70.615 75.4222 70.9849 78.0346 69.4493 81.0882Z" fill="#FFE8C8"/>
<path d="M94.7385 129.694C92.757 132.422 90.2376 133.379 87.3933 131.779C84.5842 130.187 83.9369 127.573 85.5139 124.517C87.0187 121.597 90.5418 120.582 93.132 122.291C95.8505 124.093 96.2645 126.634 94.7385 129.694Z" fill="#FFE8C8"/>
<path d="M135.69 106.476C133.121 104.501 132.506 102.005 134.243 99.0323C135.901 96.2066 139.457 95.3504 141.946 97.2206C144.544 99.1707 145 101.835 143.1 104.667C141.165 107.532 138.536 107.923 135.69 106.476Z" fill="#FFE8C8"/>
<path d="M77.8816 57.8531C80.4102 59.8723 81.0026 62.4247 79.0674 65.2907C77.1259 68.1667 74.4252 68.7362 71.7106 66.9514C68.9671 65.149 68.5614 62.4461 70.4711 59.5785C72.406 56.6706 75.029 56.3317 77.8816 57.8531Z" fill="#FFE8C8"/>
<path d="M118.09 55.8297C115.874 58.7207 113.331 59.567 110.546 57.8088C107.771 56.0564 107.25 53.3666 109.125 50.4492C110.999 47.5317 113.69 46.8725 116.475 48.5889C119.308 50.3343 119.509 52.9833 118.09 55.8297Z" fill="#FFE8C8"/>
<path d="M133.977 65.8218C131.925 68.5347 129.446 69.3221 126.595 67.7325C123.87 66.2186 123.215 62.7254 125.178 60.0697C127.21 57.3033 129.844 56.6929 132.552 58.4463C135.29 60.2173 135.561 62.8392 133.977 65.8218Z" fill="#FFE8C8"/>
<path d="M55.6077 111.699C53.3395 109.921 52.5482 107.581 54.0999 104.969C55.6549 102.372 58.2361 101.633 60.7148 103.053C63.203 104.478 63.7862 107.066 62.247 109.659C60.7146 112.283 58.2358 112.709 55.6077 111.699Z" fill="#FFE8C8"/>
<path d="M74.6139 134.433C72.3904 132.668 71.5895 130.322 73.1474 127.7C74.7087 125.093 77.3154 124.356 79.8004 125.765C82.2982 127.197 82.8847 129.801 81.3489 132.409C79.7975 135.064 77.3126 135.5 74.6139 134.433Z" fill="#FFE8C8"/>
<path d="M144.792 110.546C146.741 112.241 147.375 114.514 145.907 117.163C144.57 119.559 140.858 120.432 138.881 118.803C136.702 117.009 136.273 114.598 137.847 112.013C139.179 109.794 142.552 109.104 144.792 110.546Z" fill="#FFE8C8"/>
<path d="M65.9813 67.9556C63.9332 70.3655 61.556 71.2012 59.1486 69.6442C56.7605 68.0989 56.26 65.5044 57.915 62.9812C59.5637 60.468 62.1594 59.8342 64.5697 61.3652C66.9993 62.9078 67.1356 65.4065 65.9813 67.9556Z" fill="#FFE8C8"/>
<path d="M129.044 45.7787C131.264 47.5275 132.055 49.8674 130.485 52.4682C128.929 55.0648 126.339 55.798 123.866 54.3682C121.384 52.9326 120.811 50.3501 122.35 47.7577C123.902 45.1452 126.371 44.713 129.044 45.7787Z" fill="#FFE8C8"/>
<path d="M101.644 45.7746C99.8087 48.1192 97.4736 49.036 94.9846 47.61C92.5114 46.1798 91.9251 43.6166 93.4584 41.0335C94.998 38.4404 97.5738 37.7112 100.044 39.1256C102.539 40.5415 102.844 43.0034 101.644 45.7746Z" fill="#FFE8C8"/>
<path d="M110.233 139.408C108.238 141.711 105.842 142.577 103.416 141.008C101.008 139.451 100.501 136.825 102.169 134.282C103.84 131.754 106.464 131.096 108.887 132.649C111.326 134.197 111.533 136.711 110.233 139.408Z" fill="#FFE8C8"/>
<path d="M148.124 68.502C150.348 70.2668 151.149 72.6124 149.591 75.235C148.029 77.8417 145.422 78.5791 142.934 77.1536C140.436 75.7222 139.856 73.1078 141.401 70.5054C142.94 67.8712 145.425 67.4347 148.124 68.502Z" fill="#FFE8C8"/>
<path d="M57.743 90.0994C60.019 92.0347 60.7149 94.4 59.0446 96.9266C57.3965 99.439 54.805 100.088 52.3955 98.5579C50.0019 97.0232 49.5112 94.4354 51.1464 91.9014C52.8101 89.3429 55.2772 89.0623 57.743 90.0994Z" fill="#FFE8C8"/>
<path d="M145.928 90.135C143.704 88.3703 142.909 86.0146 144.477 83.3978C146.038 80.7912 148.645 80.0537 151.143 81.4851C153.641 82.9165 154.211 85.525 152.676 88.1332C151.105 90.7759 148.61 91.2066 145.928 90.135Z" fill="#FFE8C8"/>
<path d="M88.7707 48.7925C86.8883 51.1917 84.547 52.1186 82.0642 50.6825C79.5911 49.2523 79.0111 46.6791 80.5444 44.096C82.084 41.5028 84.6534 40.7837 87.1296 42.188C89.6441 43.6156 89.911 46.0961 88.7707 48.7925Z" fill="#FFE8C8"/>
<path d="M123.155 136.35C121.195 138.619 118.903 139.381 116.376 138.015C114.08 136.79 113.436 133.067 115.162 130.961C117.064 128.657 119.557 127.976 121.917 129.587C124.261 131.203 124.461 133.684 123.155 136.35Z" fill="#FFE8C8"/>
<path d="M154.217 94.8256C156.447 96.5385 156.893 98.7105 155.212 101.148C153.502 103.61 151.201 103.963 148.931 102.379C146.799 100.891 146.478 98.7114 147.965 96.3929C149.572 93.883 151.771 93.5229 154.217 94.8256Z" fill="#FFE8C8"/>
<path d="M129.599 134.693C127.251 132.936 126.697 130.81 128.288 128.346C129.88 125.883 132.122 125.326 134.467 126.79C136.822 128.26 137.224 130.502 135.677 132.979C134.083 135.511 131.883 135.787 129.599 134.693Z" fill="#FFE8C8"/>
<path d="M49.4402 85.3026C47.2616 83.5929 46.8289 81.4426 48.5162 79.0372C50.2225 76.6016 52.495 76.2722 54.7394 77.8552C56.8555 79.3465 57.1386 81.5032 55.6508 83.7798C54.0344 86.2838 51.8606 86.6036 49.4402 85.3026Z" fill="#FFE8C8"/>
<path d="M144.846 56.0381C147.091 57.663 147.66 59.7852 146.04 62.2734C144.405 64.7657 142.159 65.2223 139.829 63.7124C137.653 62.2957 137.249 60.1629 138.663 57.8137C140.202 55.263 142.362 54.7958 144.846 56.0381Z" fill="#FFE8C8"/>
<path d="M69.5004 53.5646C67.0959 51.8984 66.4502 49.8133 68.0219 47.2961C69.597 44.7947 71.8071 44.247 74.1717 45.7225C76.3695 47.0829 76.8242 49.177 75.4743 51.5512C74.002 54.1426 71.8547 54.5896 69.5004 53.5646Z" fill="#FFE8C8"/>
<path d="M97.017 142.189C95.0781 144.679 92.893 145.228 90.5972 143.641C88.2628 142.032 88.0611 139.702 89.7618 137.317C91.3648 135.068 93.5384 134.665 95.7401 136.041C98.1598 137.578 98.2714 139.798 97.017 142.189Z" fill="#FFE8C8"/>
<path d="M58.9342 124.233C56.545 122.479 56.0135 120.338 57.6621 117.868C59.3169 115.387 61.5695 114.962 63.8867 116.492C66.0501 117.929 66.4126 120.065 64.9892 122.408C63.4245 124.999 61.2411 125.313 58.9342 124.233Z" fill="#FFE8C8"/>
<path d="M114.051 42.6973C112.241 45.0015 110.091 45.5583 107.805 43.9776C105.49 42.3794 105.288 40.0913 106.976 37.7272C108.567 35.4983 110.715 35.0931 112.885 36.4782C115.273 37.9815 115.47 40.17 114.051 42.6973Z" fill="#FFE8C8"/>
<path d="M142.643 131.127C140.78 129.4 140.23 127.373 141.758 125.329C143.239 123.34 145.44 122.87 147.377 124.35C149.113 125.666 149.452 127.732 148.147 129.675C146.718 131.793 144.661 131.989 142.643 131.127Z" fill="#FFE8C8"/>
<path d="M46.8223 72.0189C44.9649 70.6012 44.4097 68.6682 45.8094 66.5325C47.0801 64.5822 49.0929 64.0536 50.9924 65.1916C53.0554 66.4286 53.4845 68.5212 52.0944 70.6627C50.8204 72.597 48.9049 72.9486 46.8223 72.0189Z" fill="#FFE8C8"/>
<path d="M141.388 43.5231C143.123 44.7554 143.839 46.5362 142.777 48.6406C141.605 50.9421 139.505 51.6535 137.382 50.5331C135.241 49.401 134.766 47.2534 136.089 45.0711C137.305 43.06 139.236 42.6623 141.388 43.5231Z" fill="#FFE8C8"/>
<path d="M158.172 113.529C156.678 115.497 154.715 116.306 152.633 115.099C150.56 113.898 150.124 111.731 151.434 109.569C152.648 107.583 154.708 107 156.645 107.994C158.791 109.1 159.111 111.155 158.172 113.529Z" fill="#FFE8C8"/>
<path d="M60.822 49.1197C62.5437 50.3303 63.2535 52.0794 62.1976 54.1737C61.0381 56.4551 58.9632 57.1681 56.8503 56.0535C54.734 54.923 54.2443 52.8215 55.5672 50.6391C56.7865 48.6439 58.6824 48.2388 60.822 49.1197Z" fill="#FFE8C8"/>
<path d="M67.7288 135.101C66.2378 137.043 64.2778 137.827 62.2335 136.601C60.1989 135.381 59.7693 133.246 61.1025 131.111C62.3287 129.147 64.3704 128.594 66.2853 129.602C68.3987 130.717 68.7222 132.746 67.7288 135.101Z" fill="#FFE8C8"/>
<path d="M126.676 39.1412C125.324 40.9875 123.495 41.7525 121.507 40.7553C119.33 39.6574 118.754 37.5449 120.032 35.3489C121.307 33.1369 123.464 32.5701 125.534 33.8391C127.415 35.0076 127.671 36.9537 126.676 39.1412Z" fill="#FFE8C8"/>
<path d="M78.1491 146.484C76.3199 145 75.707 143.032 77.0941 140.916C78.4687 138.821 80.6314 138.328 82.6248 139.634C84.4356 140.829 84.8547 142.874 83.6735 144.85C82.3762 147.034 80.3558 147.405 78.1491 146.484Z" fill="#FFE8C8"/>
<path d="M120.153 149.765C118.322 148.433 117.924 146.693 119.306 144.671C120.558 142.835 122.298 142.446 124.073 143.55C126.05 144.777 126.334 146.614 124.974 148.622C123.728 150.49 122.035 150.74 120.153 149.765Z" fill="#FFE8C8"/>
<path d="M160.065 66.4873C162.09 67.8685 162.608 69.5429 161.288 71.6156C160.099 73.4768 158.405 73.9624 156.592 72.9187C154.6 71.7803 154.212 70.004 155.485 67.9441C156.683 66.0469 158.35 65.795 160.065 66.4873Z" fill="#FFE8C8"/>
<path d="M111.229 146.627C112.935 147.884 113.408 149.503 112.249 151.424C110.989 153.506 109.189 154.011 107.222 152.79C105.437 151.68 105.072 149.974 106.206 148.051C107.469 145.944 109.231 145.583 111.229 146.627Z" fill="#FFE8C8"/>
<path d="M163.175 79.3895C165.201 80.7707 165.723 82.4611 164.396 84.5438C163.201 86.415 161.5 86.9107 159.668 85.8554C157.667 84.7111 157.265 82.9132 158.561 80.839C159.749 78.9359 161.429 78.6638 163.175 79.3895Z" fill="#FFE8C8"/>
<path d="M97.33 32.295C95.9999 34.0432 94.3694 34.5957 92.5685 33.4898C90.585 32.2731 90.314 30.4149 91.7092 28.4563C92.9845 26.6472 94.7447 26.3539 96.4824 27.5186C98.2392 28.695 98.3813 30.3778 97.33 32.295Z" fill="#FFE8C8"/>
<path d="M44.2295 94.4619C45.8818 95.7414 46.3069 97.3735 45.0836 99.2692C43.7311 101.35 41.873 101.695 40.0067 100.355C38.2816 99.1286 38.126 97.3407 39.3978 95.5161C40.7076 93.6728 42.3916 93.4585 44.2295 94.4619Z" fill="#FFE8C8"/>
<path d="M158.169 58.4572C156.968 60.0618 155.393 60.7171 153.722 59.8285C151.861 58.8392 151.453 57.0091 152.648 55.1374C153.724 53.457 155.458 53.0365 157.095 54.0014C158.745 54.9881 158.922 56.6364 158.169 58.4572Z" fill="#FFE8C8"/>
<path d="M110.105 29.0532C108.843 30.5651 107.264 31.2045 105.652 30.2411C103.877 29.1786 103.508 27.3299 104.77 25.5408C105.892 23.9574 107.635 23.5427 109.215 24.5983C110.786 25.6481 110.918 27.2833 110.105 29.0532Z" fill="#FFE8C8"/>
<path d="M47.1917 107.303C48.8975 108.517 49.4118 110.134 48.2461 112.065C46.9735 114.167 45.1386 114.623 43.2091 113.342C41.4366 112.17 41.1952 110.413 42.4094 108.553C43.6423 106.664 45.3097 106.37 47.1917 107.303Z" fill="#FFE8C8"/>
<path d="M133.19 146.527C131.627 145.233 131.128 143.57 132.406 141.735C133.543 140.106 135.257 139.674 136.859 140.673C138.627 141.787 138.971 143.592 137.718 145.428C136.579 147.083 134.94 147.311 133.19 146.527Z" fill="#FFE8C8"/>
<path d="M40.7203 81.5405C42.3147 82.7849 42.8825 84.3368 41.9062 86.0489C40.8264 87.948 38.9858 88.4559 37.2427 87.3434C35.676 86.3517 35.3711 84.6123 36.4113 82.9251C37.4766 81.1976 39.1261 81.0596 40.7203 81.5405Z" fill="#FFE8C8"/>
<path d="M79.7014 36.6888C77.8888 35.2843 77.4256 33.6708 78.6267 31.7896C79.9473 29.717 81.7924 29.3506 83.6616 30.6645C85.3737 31.8692 85.5577 33.6326 84.3115 35.4588C83.0402 37.3252 81.3522 37.4399 79.7014 36.6888Z" fill="#FFE8C8"/>
<path d="M162.553 98.4395C161.123 97.0588 160.662 95.3776 162.034 93.6272C163.225 92.101 164.965 91.7124 166.494 92.8064C168.155 94.0079 168.435 95.8296 167.096 97.5715C165.895 99.1337 164.25 99.3294 162.553 98.4395Z" fill="#FFE8C8"/>
<path d="M51.0642 125.122C49.7445 126.599 48.1683 127.17 46.5467 126.159C44.9347 125.154 44.5502 123.435 45.597 121.737C46.7633 119.848 48.6083 119.398 50.3271 120.593C51.8662 121.651 51.9764 123.343 51.0642 125.122Z" fill="#FFE8C8"/>
<path d="M97.9857 149.727C99.6836 151.146 100.211 152.784 98.9743 154.616C97.8697 156.236 96.1592 156.684 94.5607 155.701C92.7988 154.619 92.4584 152.83 93.6598 150.991C94.7576 149.338 96.4137 149.232 97.9857 149.727Z" fill="#FFE8C8"/>
<path d="M71.3102 38.3451C69.9683 39.8363 68.3699 40.4222 66.7764 39.3449C65.2054 38.2951 64.8811 36.5433 66.0015 34.8762C67.1253 33.2249 68.8653 32.7943 70.4618 33.8457C72.0424 34.9013 72.1652 36.5725 71.3102 38.3451Z" fill="#FFE8C8"/>
<path d="M160.305 125.936C159.104 127.498 157.689 127.96 156.202 127.03C154.715 126.101 154.406 124.58 155.406 123.021C156.406 121.461 157.92 121.074 159.414 121.993C160.917 122.919 161.057 124.392 160.305 125.936Z" fill="#FFE8C8"/>
<path d="M85.7258 156.904C84.7313 158.37 83.5753 158.863 82.2887 158.249C80.8165 157.551 80.3813 156.232 81.2638 154.712C82.1401 153.203 83.492 152.884 84.8828 153.755C86.1294 154.539 86.1432 155.769 85.7258 156.904Z" fill="#FFE8C8"/>
<path d="M64.992 144.651C66.3136 143.023 67.7388 142.693 69.1566 143.733C70.6033 144.791 70.674 146.333 69.5517 147.791C68.5556 149.089 67.1682 149.359 65.8283 148.491C64.3154 147.518 64.268 146.087 64.992 144.651Z" fill="#FFE8C8"/>
<path d="M53.5599 137.499C52.5383 138.795 51.2957 139.236 49.9395 138.33C48.7756 137.541 48.5289 136.281 49.3149 135.022C50.2142 133.582 51.5629 133.247 52.9061 134.131C54.0922 134.906 54.1889 136.131 53.5599 137.499Z" fill="#FFE8C8"/>
<path d="M122.345 25.5825C121.396 26.7423 120.217 27.2079 118.99 26.4776C117.59 25.6425 117.329 24.2347 118.35 22.8544C119.22 21.6739 120.527 21.3838 121.717 22.2163C122.884 23.0213 122.987 24.2361 122.345 25.5825Z" fill="#FFE8C8"/>
<path d="M138.59 35.5556C137.291 37.2115 135.859 37.4258 134.444 36.3597C133.167 35.391 133.04 33.9812 134.019 32.6036C135.153 31.0002 136.64 30.8468 138.055 31.913C139.354 32.8673 139.347 34.2374 138.59 35.5556Z" fill="#FFE8C8"/>
<path d="M154.444 45.1826C153.213 46.6023 151.912 46.9661 150.641 45.9872C149.56 45.151 149.338 43.8503 150.217 42.6337C151.203 41.2459 152.568 40.9907 153.852 41.9494C154.975 42.783 154.944 44.0419 154.444 45.1826Z" fill="#FFE8C8"/>
<path d="M57.7964 40.946C56.8662 42.1175 55.6814 42.5931 54.4576 41.8788C53.0448 41.0638 52.7778 39.6662 53.7761 38.2583C54.6328 37.0561 55.9341 36.7761 57.1331 37.5726C58.3195 38.3892 58.4224 39.6039 57.7964 40.946Z" fill="#FFE8C8"/>
<path d="M169.947 109.596C168.845 111.149 167.625 111.575 166.221 110.724C165.001 109.984 164.684 108.792 165.374 107.475C166.146 105.985 167.413 105.462 168.885 106.202C170.361 106.959 170.481 108.253 169.947 109.596Z" fill="#FFE8C8"/>
<path d="M48.1625 57.0825C47.1043 58.5651 45.7468 58.9776 44.2466 57.9846C42.9131 57.1066 42.669 55.7784 43.5523 54.3426C44.555 52.7153 45.9705 52.3797 47.4771 53.3626C48.8265 54.2364 48.9811 55.538 48.1625 57.0825Z" fill="#FFE8C8"/>
<path d="M38.0862 72.9934C37.1238 74.1315 35.9356 74.5912 34.7274 73.8308C33.3461 72.9655 33.1013 71.5535 34.1414 70.1849C35.0239 69.0261 36.3507 68.7477 37.5182 69.5945C38.6666 70.4296 38.7728 71.6603 38.0862 72.9934Z" fill="#FFE8C8"/>
<path d="M150.153 141.758C149.18 143.126 147.954 143.562 146.55 142.711C145.329 141.971 145.013 140.779 145.703 139.462C146.474 137.972 147.748 137.439 149.214 138.19C150.655 138.938 150.895 140.209 150.153 141.758Z" fill="#FFE8C8"/>
</g>
<defs>
<filter id="filter0_f_3120_189" x="29.5" y="17.7402" width="144.737" height="144.768" filterUnits="userSpaceOnUse" color-interpolation-filters="sRGB">
<feFlood flood-opacity="0" result="BackgroundImageFix"/>
<feBlend mode="normal" in="SourceGraphic" in2="BackgroundImageFix" result="shape"/>
<feGaussianBlur stdDeviation="2" result="effect1_foregroundBlur_3120_189"/>
</filter>
</defs>
</svg>
