<svg width="104" height="25" viewBox="0 0 104 25" fill="none" xmlns="http://www.w3.org/2000/svg">
<path d="M27.756 2.50104H25.2173V3.24892H27.0179C26.9288 4.29774 26.05 4.74503 25.2204 4.74503C24.159 4.74503 23.2327 3.91594 23.2327 2.75383C23.2327 1.62184 24.1156 0.750069 25.2226 0.750069C26.0769 0.750069 26.5801 1.29052 26.5801 1.29052L27.1075 0.748239C27.1075 0.748239 26.4305 0 25.1957 0C23.6233 0 22.407 1.31747 22.407 2.74041C22.407 4.13495 23.5512 5.49449 25.2357 5.49449C26.7174 5.49449 27.802 4.487 27.802 2.99698C27.802 2.68261 27.756 2.50104 27.756 2.50104Z" fill="white"/>
<path d="M28.2343 14.5548H33.8127C33.8167 14.5706 33.9136 14.9676 33.9136 15.6444C33.9136 18.9185 31.5304 21.1328 28.2748 21.1328C24.573 21.1328 22.0588 18.1451 22.0588 15.081C22.0588 11.954 24.7317 9.05899 28.1867 9.05911C30.9001 9.05911 32.3878 10.7033 32.3878 10.7033L31.2286 11.8949C31.2286 11.8949 30.1228 10.707 28.2459 10.707C25.8135 10.707 23.8734 12.6228 23.8734 15.1103C23.8734 17.6636 25.9086 19.4856 28.2409 19.4856C30.0638 19.4856 31.9951 18.5027 32.1906 16.1982H28.2343V14.5548Z" fill="white"/>
<path fill-rule="evenodd" clip-rule="evenodd" d="M34.6253 17.2134C34.6253 15.1412 36.2657 13.3647 38.5549 13.3647C40.4364 13.3647 42.4768 14.6883 42.4768 17.2585C42.4768 19.5009 40.7227 21.1257 38.5815 21.1257C36.2163 21.1257 34.6253 19.3161 34.6253 17.2134ZM40.7699 17.2483C40.7699 15.7924 39.7032 14.8888 38.5775 14.8888C37.3127 14.8888 36.3406 15.8928 36.3406 17.2369C36.3406 18.6106 37.3248 19.6025 38.5723 19.6025C39.7076 19.6025 40.7699 18.6732 40.7699 17.2483Z" fill="white"/>
<path fill-rule="evenodd" clip-rule="evenodd" d="M47.1937 13.3647C44.9046 13.3647 43.2641 15.1412 43.2641 17.2134C43.2641 19.3161 44.8552 21.1257 47.2206 21.1257C49.3616 21.1257 51.1158 19.5009 51.1158 17.2585C51.1158 14.6883 49.0754 13.3647 47.1937 13.3647ZM47.2164 14.8888C48.342 14.8888 49.4088 15.7924 49.4088 17.2483C49.4088 18.6732 48.3465 19.6025 47.2111 19.6025C45.9638 19.6025 44.9796 18.6106 44.9796 17.2369C44.9796 15.8928 45.9515 14.8888 47.2164 14.8888Z" fill="white"/>
<path fill-rule="evenodd" clip-rule="evenodd" d="M51.9027 17.2461C51.9027 15.1956 53.5545 13.3688 55.6553 13.3688C56.5701 13.3688 57.2591 13.7202 57.763 14.2594V13.6021H59.4018V20.575C59.4018 23.3147 57.8097 24.6207 55.7206 24.6207C53.8108 24.6207 52.738 23.4549 52.2049 22.3356L53.7072 21.7121C53.9153 22.2122 54.5142 23.094 55.7082 23.094C56.9441 23.094 57.7629 22.2918 57.7629 20.953V20.1878C57.3256 20.6917 56.7333 21.1308 55.6191 21.1308C53.8174 21.1308 51.9027 19.5819 51.9027 17.2461ZM55.8074 14.8899C56.8376 14.8899 57.8954 15.7631 57.8954 17.2544C57.8954 18.7701 56.8398 19.6054 55.7847 19.6054C54.6647 19.6054 53.6224 18.7026 53.6224 17.2688C53.6224 15.779 54.7049 14.8899 55.8074 14.8899Z" fill="white"/>
<path fill-rule="evenodd" clip-rule="evenodd" d="M63.3872 17.2349C63.3872 14.9249 65.0511 13.3594 67.033 13.3594C68.5962 13.3594 69.7773 14.3945 70.2836 15.6335L70.5558 16.2663L65.3145 18.4253C65.6276 19.0039 66.1329 19.6013 67.2316 19.6014C68.2099 19.6014 68.7961 19.0734 69.1468 18.5331L70.498 19.4257C69.8922 20.2305 68.8772 21.1286 67.2234 21.1286C65.2419 21.1286 63.3872 19.6791 63.3872 17.2349ZM67.1014 14.852C67.8156 14.852 68.3295 15.2288 68.5478 15.6808L65.0476 17.1332C64.8968 16.0087 65.9699 14.852 67.1014 14.852Z" fill="white"/>
<path d="M62.4377 20.8983H60.7161V9.46043H62.4377V20.8983Z" fill="white"/>
<path d="M83.7982 20.8983H85.5198V9.46043H83.7982V20.8983Z" fill="white"/>
<path fill-rule="evenodd" clip-rule="evenodd" d="M76.3903 20.8983H74.6687V9.46043L78.8331 9.4603C80.8518 9.4603 82.5034 11.0999 82.5034 13.1041C82.5034 15.1081 80.8518 16.7477 78.8331 16.7477H76.3903V20.8983ZM76.3903 15.0386V11.1694H78.8331C79.9016 11.1694 80.7819 12.0433 80.7819 13.1041C80.7819 14.1647 79.9016 15.0386 78.8331 15.0386H76.3903Z" fill="white"/>
<path d="M98.2305 24.6207L103.215 13.3597H101.335L99.0792 18.4556L96.8235 13.3597H94.9432L98.139 20.5796L96.3502 24.6207H98.2305Z" fill="white"/>
<path fill-rule="evenodd" clip-rule="evenodd" d="M92.5657 20.8983H94.2873V16.7845C94.5567 12.5418 89.1385 11.5439 87.0883 14.6025L88.4737 15.5254C89.4762 13.7855 92.3366 14.1858 92.5247 16.0504C91.665 15.8244 90.7363 15.6605 89.8878 15.7457C88.5633 15.8787 87.4293 16.7138 87.2491 18.0815C87.1517 18.8206 87.3179 19.7316 87.8376 20.2868C88.6475 21.1519 89.9773 21.2685 91.0697 20.9729C91.6848 20.8064 92.169 20.4437 92.5657 19.975V20.8983ZM90.6605 19.482C91.6027 19.2273 92.3455 18.5431 92.5657 17.5919C92.084 17.4371 91.6408 17.3121 91.1329 17.2512C88.1745 16.8097 88.6698 20.0208 90.6605 19.482Z" fill="white"/>
<path d="M38.9157 5.38791H38.1323V0.18267H38.9157V5.38791Z" fill="white"/>
<path d="M33.7447 5.38791H34.5282V0.96042H35.8143V0.18267H32.4587V0.96042H33.7447V5.38791Z" fill="white"/>
<path d="M31.6326 5.38791H28.6279V0.18267H31.6326V0.96042H29.4115V2.39641H31.3652V3.17416H29.4115V4.61004H31.6326V5.38791Z" fill="white"/>
<path d="M41.623 5.38791V0.96042H42.9091V0.18267H39.5536V0.96042H40.8396V5.38791H41.623Z" fill="white"/>
<path fill-rule="evenodd" clip-rule="evenodd" d="M44.925 2.74041C44.925 1.31735 46.1414 0 47.7137 0C49.2861 0 50.5025 1.31735 50.5025 2.74041C50.5025 4.12373 49.3764 5.47266 47.7137 5.494C46.0511 5.47266 44.925 4.12373 44.925 2.74041ZM47.7137 4.74466C46.6627 4.73186 45.7508 3.90692 45.7508 2.75383C45.7508 1.6311 46.6194 0.764336 47.7137 0.750313C48.8081 0.764336 49.6767 1.6311 49.6767 2.75383C49.6767 3.90692 48.7648 4.73186 47.7137 4.74466Z" fill="white"/>
<path d="M52.0686 5.38791H51.285V0.18267H52.0686L54.5835 3.97228V0.18267H55.3671V5.38791H54.5849L52.0686 1.59635V5.38791Z" fill="white"/>
<path d="M1.01437 6.49259L9.86653 15.2676L1.05687 24.1195C0.799787 23.9573 0.661971 23.6061 0.659637 23.1525L0.579798 7.44167C0.577341 6.94487 0.759376 6.64184 1.01437 6.49259Z" fill="white"/>
<path d="M2.02134 6.50442L12.7856 12.3346L10.2327 14.8996L1.64572 6.38723C1.7758 6.40418 1.90637 6.4421 2.02134 6.50442Z" fill="white"/>
<path d="M13.2643 17.9047L10.6014 15.265L13.2616 12.5924L16.9249 14.5763C17.8273 15.0648 17.3657 15.676 16.9249 15.9155L13.2643 17.9047Z" fill="white"/>
<path d="M2.02134 24.0134C1.94002 24.0585 1.86166 24.0939 1.78661 24.1219L10.2353 15.633L12.7878 18.1633L2.02134 24.0134Z" fill="white"/>
</svg>
