<svg width="103" height="26" viewBox="0 0 103 26" fill="none" xmlns="http://www.w3.org/2000/svg">
<path d="M14.5679 0C14.7182 1.35703 14.1765 2.69428 13.3848 3.6772C12.5587 4.64484 11.2371 5.38496 9.94988 5.28963C9.78139 3.98386 10.4336 2.59535 11.1637 1.74822C11.9889 0.78688 13.422 0.0503603 14.5679 0Z" fill="white"/>
<path d="M18.7817 7.82823C18.638 7.91335 16.2574 9.32395 16.2835 12.2007C16.3143 15.6746 19.3453 16.823 19.3815 16.8347C19.3634 16.9157 18.9068 18.4939 17.77 20.0929C16.8207 21.503 15.8261 22.8816 14.2463 22.905C13.495 22.9226 12.9878 22.7082 12.4591 22.4848C11.9081 22.252 11.3337 22.0093 10.4354 22.0093C9.48309 22.0093 8.88328 22.26 8.30491 22.5017C7.80446 22.7109 7.32006 22.9134 6.63722 22.9409C5.13262 22.9958 3.9831 21.4373 2.99936 20.0398C1.03278 17.1882 -0.498091 12.0037 1.55454 8.47582C2.54916 6.74558 4.36265 5.63136 6.30115 5.60169C7.15478 5.58436 7.9735 5.91096 8.69122 6.19726C9.24008 6.41621 9.72988 6.61159 10.131 6.61159C10.4834 6.61159 10.9594 6.42402 11.5143 6.2054C12.3887 5.86087 13.4587 5.43924 14.5488 5.55312C15.2943 5.57471 17.4158 5.84539 18.7845 7.82653L18.7817 7.82823Z" fill="white"/>
<path fill-rule="evenodd" clip-rule="evenodd" d="M29.679 0.774513H27.5525V7.05549H29.679C31.5599 7.05549 32.6648 5.89331 32.6648 3.91282C32.6648 1.93669 31.5555 0.774513 29.679 0.774513ZM28.3417 1.47965V6.35035H29.6264C31.0601 6.35035 31.858 5.4798 31.858 3.92153C31.858 2.3502 31.0644 1.47965 29.6264 1.47965H28.3417Z" fill="white"/>
<path fill-rule="evenodd" clip-rule="evenodd" d="M35.7131 7.13384C34.4504 7.13384 33.5998 6.23282 33.5998 4.79207C33.5998 3.34697 34.4504 2.45031 35.7131 2.45031C36.9714 2.45031 37.822 3.34697 37.822 4.79207C37.822 6.23282 36.9714 7.13384 35.7131 7.13384ZM37.046 4.79207C37.046 5.85849 36.5198 6.46787 35.7131 6.46787C34.9064 6.46787 34.3759 5.85849 34.3759 4.79207C34.3759 3.72566 34.9064 3.11628 35.7131 3.11628C36.5198 3.11628 37.046 3.72566 37.046 4.79207Z" fill="white"/>
<path d="M42.6417 7.05549H43.4177L44.6892 2.52866H43.9351L43.0231 6.21106H43.0056L41.9708 2.52866H41.2343L40.2039 6.21106H40.1864L39.2744 2.52866H38.5159L39.7918 7.05549H40.5678L41.5938 3.55155H41.6113L42.6417 7.05549Z" fill="white"/>
<path d="M46.3301 2.52866H45.6111V7.05549H46.374V4.39162C46.374 3.62555 46.8431 3.12063 47.5621 3.12063C48.2637 3.12063 48.61 3.52108 48.61 4.25234V7.05549H49.3729V4.1174C49.3729 3.09016 48.7942 2.45031 47.7945 2.45031C47.0886 2.45031 46.602 2.76371 46.3477 3.25121H46.3301V2.52866Z" fill="white"/>
<path d="M50.6806 0.774513V7.05549H51.4435V0.774513H50.6806Z" fill="white"/>
<path fill-rule="evenodd" clip-rule="evenodd" d="M52.5496 4.79207C52.5496 6.23282 53.4002 7.13384 54.6629 7.13384C55.9212 7.13384 56.7718 6.23282 56.7718 4.79207C56.7718 3.34697 55.9212 2.45031 54.6629 2.45031C53.4002 2.45031 52.5496 3.34697 52.5496 4.79207ZM54.6629 6.46787C55.4696 6.46787 55.9957 5.85849 55.9957 4.79207C55.9957 3.72566 55.4696 3.11628 54.6629 3.11628C53.8561 3.11628 53.3256 3.72566 53.3256 4.79207C53.3256 5.85849 53.8561 6.46787 54.6629 6.46787Z" fill="white"/>
<path fill-rule="evenodd" clip-rule="evenodd" d="M59.1712 7.13384C58.2636 7.13384 57.6542 6.58975 57.6542 5.77579C57.6542 5.001 58.2549 4.5135 59.3071 4.45256L60.6137 4.37857V3.99988C60.6137 3.44708 60.2454 3.11628 59.614 3.11628C59.0265 3.11628 58.6582 3.3905 58.5618 3.83448H57.8252C57.8778 3.05099 58.553 2.45031 59.6316 2.45031C60.7014 2.45031 61.3766 3.02487 61.3766 3.92588V7.05549H60.6532V6.27635H60.6356C60.3638 6.79432 59.785 7.13384 59.1712 7.13384ZM60.6137 5.33616C60.6137 5.98907 60.0613 6.48963 59.3422 6.48963C58.7942 6.48963 58.4302 6.20671 58.4302 5.77579C58.4302 5.34922 58.781 5.07935 59.3948 5.04018L60.6137 4.96618V5.33616Z" fill="white"/>
<path fill-rule="evenodd" clip-rule="evenodd" d="M62.4212 4.79207C62.4212 6.21106 63.2104 7.13384 64.3723 7.13384C65.03 7.13384 65.5517 6.81174 65.8455 6.28941H65.8586V7.05549H66.5864V0.774513H65.8235V3.26427H65.806C65.5342 2.76806 65.008 2.45031 64.3548 2.45031C63.2061 2.45031 62.4212 3.37309 62.4212 4.79207ZM64.517 3.11628C63.7103 3.11628 63.2017 3.76918 63.2017 4.79207C63.2017 5.81932 63.7103 6.46787 64.517 6.46787C65.3018 6.46787 65.8279 5.80626 65.8279 4.79207C65.8279 3.78224 65.3018 3.11628 64.517 3.11628Z" fill="white"/>
<path fill-rule="evenodd" clip-rule="evenodd" d="M71.9465 7.13384C70.6838 7.13384 69.8333 6.23282 69.8333 4.79207C69.8333 3.34697 70.6838 2.45031 71.9465 2.45031C73.2049 2.45031 74.0555 3.34697 74.0555 4.79207C74.0555 6.23282 73.2049 7.13384 71.9465 7.13384ZM73.2794 4.79207C73.2794 5.85849 72.7533 6.46787 71.9465 6.46787C71.1398 6.46787 70.6093 5.85849 70.6093 4.79207C70.6093 3.72566 71.1398 3.11628 71.9465 3.11628C72.7533 3.11628 73.2794 3.72566 73.2794 4.79207Z" fill="white"/>
<path d="M75.8411 2.52866H75.122V7.05549H75.8849V4.39162C75.8849 3.62555 76.354 3.12063 77.0731 3.12063C77.7746 3.12063 78.121 3.52108 78.121 4.25234V7.05549H78.8839V4.1174C78.8839 3.09016 78.3051 2.45031 77.3055 2.45031C76.5996 2.45031 76.1129 2.76371 75.8586 3.25121H75.8411V2.52866Z" fill="white"/>
<path d="M83.3013 1.43613H82.5384V2.52866H81.8588V3.1511H82.5384V5.88025C82.5384 6.7508 82.8629 7.09031 83.7003 7.09031C83.8801 7.09031 84.0905 7.07725 84.1826 7.05549V6.41999C84.13 6.4287 83.9546 6.44175 83.8669 6.44175C83.4767 6.44175 83.3013 6.25459 83.3013 5.84108V3.1511H84.187V2.52866H83.3013V1.43613Z" fill="white"/>
<path d="M85.3369 0.774513V7.05549H86.0997V4.41774C86.0997 3.63425 86.5689 3.12063 87.3274 3.12063C88.042 3.12063 88.406 3.55155 88.406 4.26975V7.05549H89.1688V4.13046C89.1688 3.12063 88.5638 2.45031 87.5641 2.45031C86.8714 2.45031 86.3716 2.7463 86.1173 3.25121H86.0997V0.774513H85.3369Z" fill="white"/>
<path fill-rule="evenodd" clip-rule="evenodd" d="M94.2121 5.75838H93.4624C93.3352 6.18494 92.9099 6.47658 92.3312 6.47658C91.5113 6.47658 90.9983 5.90637 90.9983 5.04018V4.99665H94.2691V4.70937C94.2691 3.33827 93.5106 2.45031 92.2786 2.45031C91.0202 2.45031 90.2135 3.40356 90.2135 4.80948C90.2135 6.23282 91.0071 7.13384 92.3136 7.13384C93.3089 7.13384 94.0806 6.55057 94.2121 5.75838ZM92.2654 3.10757C91.5508 3.10757 91.0509 3.65166 91.0027 4.40468H93.4799C93.4624 3.64731 92.9845 3.10757 92.2654 3.10757Z" fill="white"/>
<path fill-rule="evenodd" clip-rule="evenodd" d="M34.9404 22.453L33.8356 19.2122H29.2319L28.127 22.453H26.1768L30.5377 10.4621H32.5633L36.9242 22.453H34.9404ZM29.709 17.7165L31.5086 12.4564H31.5589L33.3585 17.7165H29.709Z" fill="white"/>
<path fill-rule="evenodd" clip-rule="evenodd" d="M46.7405 18.0821C46.7405 15.315 45.2673 13.5699 43.0325 13.5699C41.7602 13.5699 40.7474 14.2098 40.2284 15.2153H40.195V13.7112H38.4456V25.3448H40.2536V21.0155H40.2954C40.7976 21.9877 41.8021 22.6026 43.066 22.6026C45.2757 22.6026 46.7405 20.8493 46.7405 18.0821ZM42.5554 21.0819C43.9867 21.0819 44.8823 19.9186 44.8823 18.0821C44.8823 16.254 43.9867 15.0823 42.5554 15.0823C41.1743 15.0823 40.2452 16.2789 40.2452 18.0821C40.2452 19.9019 41.1659 21.0819 42.5554 21.0819Z" fill="white"/>
<path fill-rule="evenodd" clip-rule="evenodd" d="M53.125 13.5699C55.3599 13.5699 56.833 15.315 56.833 18.0821C56.833 20.8493 55.3683 22.6026 53.1585 22.6026C51.8946 22.6026 50.8902 21.9877 50.3879 21.0155H50.3461V25.3448H48.5381V13.7112H50.2875V15.2153H50.321C50.8399 14.2098 51.8527 13.5699 53.125 13.5699ZM54.9748 18.0821C54.9748 19.9186 54.0792 21.0819 52.6479 21.0819C51.2585 21.0819 50.3377 19.9019 50.3377 18.0821C50.3377 16.2789 51.2668 15.0823 52.6479 15.0823C54.0792 15.0823 54.9748 16.254 54.9748 18.0821Z" fill="white"/>
<path d="M64.0442 19.1125H62.1944C62.3116 21.2814 64.1195 22.6525 66.798 22.6525C69.6607 22.6525 71.4603 21.2481 71.4603 19.0045C71.4603 17.2511 70.4307 16.2623 67.9531 15.6806L66.6223 15.3565C65.0654 14.9743 64.4293 14.4757 64.4293 13.6281C64.4293 12.5644 65.4253 11.8332 66.8817 11.8332C68.3382 11.8332 69.3342 12.5561 69.443 13.7527H71.2678C71.2092 11.6836 69.4598 10.2627 66.9069 10.2627C64.3288 10.2627 62.5125 11.6836 62.5125 13.7527C62.5125 15.423 63.542 16.4534 65.7601 16.9852L67.3254 17.3592C68.8906 17.7414 69.5518 18.2982 69.5518 19.2289C69.5518 20.3008 68.4554 21.0819 66.932 21.0819C65.3416 21.0819 64.1781 20.3008 64.0442 19.1125Z" fill="white"/>
<path d="M75.6769 11.6421H73.8605V13.7112H72.5799V15.1322H73.8605V20.1512C73.8605 21.8381 74.5553 22.5112 76.3381 22.5112C76.7399 22.5112 77.1417 22.478 77.3426 22.4281V21.0071C77.2254 21.0321 76.9324 21.0487 76.7483 21.0487C76.0117 21.0487 75.6769 20.708 75.6769 19.9518V15.1322H77.3509V13.7112H75.6769V11.6421Z" fill="white"/>
<path fill-rule="evenodd" clip-rule="evenodd" d="M78.638 18.0821C78.638 20.8991 80.2953 22.6192 82.8147 22.6192C85.3342 22.6192 86.9915 20.8991 86.9915 18.0821C86.9915 15.2734 85.3258 13.5533 82.8147 13.5533C80.3036 13.5533 78.638 15.2734 78.638 18.0821ZM82.8147 21.1401C84.2377 21.1401 85.15 20.0266 85.15 18.0821C85.15 16.1459 84.2293 15.0324 82.8147 15.0324C81.4002 15.0324 80.4794 16.1459 80.4794 18.0821C80.4794 20.0266 81.4002 21.1401 82.8147 21.1401Z" fill="white"/>
<path d="M88.7975 13.7112H90.5217V15.1986H90.5636C90.8565 14.1765 91.6434 13.5699 92.6813 13.5699C92.9407 13.5699 93.1667 13.6115 93.3007 13.6364V15.3067C93.1584 15.2485 92.8403 15.2069 92.4888 15.2069C91.3253 15.2069 90.6054 15.9798 90.6054 17.2179V22.453H88.7975V13.7112Z" fill="white"/>
<path fill-rule="evenodd" clip-rule="evenodd" d="M100.664 19.8915H102.38C102.129 21.487 100.606 22.6254 98.5887 22.6254C96.0023 22.6254 94.437 20.8887 94.437 18.1299C94.437 15.3877 96.0274 13.5595 98.5133 13.5595C100.957 13.5595 102.481 15.2713 102.481 17.9221V18.5371H96.2617V18.6451C96.2617 20.1658 97.1825 21.1712 98.6305 21.1712C99.6601 21.1712 100.422 20.656 100.664 19.8915ZM96.2617 17.3855L100.664 17.3442C100.664 16.9759 100.509 16.2931 100.144 15.931C99.7798 15.569 99.2428 15.2941 98.5133 15.2941C97.0445 15.2941 96.2617 16.2683 96.2617 17.3855Z" fill="white"/>
</svg>
