<svg width="189" height="28" viewBox="0 0 189 28" fill="none" xmlns="http://www.w3.org/2000/svg">
<path d="M24.984 13.272C25.1973 15.256 25.1013 17.016 24.696 18.552C24.312 20.088 23.704 21.4213 22.872 22.552C22.0613 23.6613 21.1013 24.5787 19.992 25.304C18.8827 26.008 17.6987 26.5413 16.44 26.904C15.2027 27.2453 13.976 27.416 12.76 27.416C11.544 27.416 10.3067 27.256 9.048 26.936C7.78933 26.616 6.59467 26.1147 5.464 25.432C4.35467 24.7493 3.37333 23.864 2.52 22.776C1.688 21.688 1.06933 20.3973 0.664 18.904C0.258667 17.3893 0.162667 15.64 0.376 13.656C0.546667 11.9493 0.973333 10.36 1.656 8.888C2.33867 7.39467 3.224 6.104 4.312 5.016C5.4 3.90667 6.648 3.05333 8.056 2.456C9.464 1.83733 10.968 1.54933 12.568 1.592C12.6747 1.592 12.8347 1.51733 13.048 1.368C13.2613 1.19733 13.5493 1.03733 13.912 0.887999C14.2747 0.738666 14.712 0.685333 15.224 0.727999C16.184 0.813332 17.1973 1.208 18.264 1.912C19.3307 2.616 20.344 3.55467 21.304 4.728C22.264 5.88 23.0747 7.192 23.736 8.664C24.3973 10.136 24.8133 11.672 24.984 13.272ZM12.856 21.496C13.6027 21.4747 14.3067 21.368 14.968 21.176C15.6507 20.984 16.2587 20.632 16.792 20.12C17.3253 19.608 17.752 18.8827 18.072 17.944C18.4133 17.0053 18.5947 15.8 18.616 14.328C18.6373 13.304 18.4133 12.312 17.944 11.352C17.4747 10.392 16.824 9.58133 15.992 8.92C15.16 8.23733 14.2107 7.84267 13.144 7.736C11.992 7.608 11.0107 7.72533 10.2 8.088C9.38933 8.42933 8.71733 8.94133 8.184 9.624C7.672 10.2853 7.27733 11.032 7 11.864C6.72267 12.696 6.552 13.5387 6.488 14.392C6.36 15.864 6.49867 17.0693 6.904 18.008C7.30933 18.9467 7.85333 19.672 8.536 20.184C9.21867 20.696 9.944 21.048 10.712 21.24C11.5013 21.432 12.216 21.5173 12.856 21.496ZM30.471 27.288C29.5537 27.1173 28.903 26.4987 28.519 25.432C28.1563 24.3653 27.975 23.0427 27.975 21.464C27.975 21.272 27.9643 20.792 27.943 20.024C27.943 19.256 27.9323 18.3067 27.911 17.176C27.911 16.024 27.9003 14.7867 27.879 13.464C27.879 12.1413 27.8683 10.8187 27.847 9.496C27.8257 8.17333 27.8043 6.95733 27.783 5.848C27.7617 4.71733 27.7403 3.78933 27.719 3.064C27.6977 2.33867 27.6763 1.90133 27.655 1.752C27.975 1.688 28.4657 1.67733 29.127 1.72C29.8097 1.74133 30.5137 1.848 31.239 2.04C31.9857 2.21067 32.6363 2.50933 33.191 2.936C33.7457 3.34133 34.0657 3.90667 34.151 4.632C34.1937 4.97333 34.2257 5.56 34.247 6.392C34.2683 7.20267 34.279 8.17333 34.279 9.304C34.3003 10.4133 34.311 11.5973 34.311 12.856C34.311 14.1147 34.311 15.3627 34.311 16.6C34.311 17.816 34.311 18.9467 34.311 19.992C34.311 21.016 34.311 21.88 34.311 22.584C34.3323 23.2667 34.3537 23.6827 34.375 23.832C34.4177 24.28 34.503 24.6107 34.631 24.824C34.759 25.016 34.8977 25.2613 35.047 25.56C34.5137 26.136 33.8523 26.6053 33.063 26.968C32.2737 27.3307 31.4097 27.4373 30.471 27.288ZM47.8325 1.368C49.0912 1.368 50.2965 1.592 51.4485 2.04C52.6218 2.46667 53.6032 3.04267 54.3925 3.768C55.2032 4.49333 55.6832 5.272 55.8325 6.104C55.9392 6.65867 55.8645 7.27733 55.6085 7.96C55.3525 8.62133 54.9472 9.208 54.3925 9.72C53.8378 10.2107 53.1658 10.4773 52.3765 10.52C52.0992 10.52 51.7472 10.488 51.3205 10.424C50.8938 10.36 50.4778 10.232 50.0725 10.04C49.6885 9.848 49.3792 9.57067 49.1445 9.208C49.4645 9.03733 49.6778 8.856 49.7845 8.664C49.8912 8.472 49.9232 8.28 49.8805 8.088C49.7952 7.66133 49.5392 7.30933 49.1125 7.032C48.7072 6.75467 48.2058 6.584 47.6085 6.52C47.2672 6.47733 46.8725 6.488 46.4245 6.552C45.9765 6.59467 45.5605 6.744 45.1765 7C44.8138 7.23467 44.5578 7.62933 44.4085 8.184C44.3232 8.504 44.3338 8.856 44.4405 9.24C44.5685 9.60267 44.8672 9.95467 45.3365 10.296C45.8058 10.616 46.5205 10.8933 47.4805 11.128C48.9525 11.4693 50.3178 11.8427 51.5765 12.248C52.8565 12.6533 53.9765 13.1547 54.9365 13.752C55.8965 14.3493 56.6325 15.096 57.1445 15.992C57.6778 16.8667 57.9232 17.9653 57.8805 19.288C57.8592 20.1627 57.6245 21.08 57.1765 22.04C56.7285 23 56.0778 23.896 55.2245 24.728C54.3712 25.5387 53.3258 26.2 52.0885 26.712C50.8512 27.224 49.4432 27.48 47.8645 27.48C46.8618 27.48 45.8272 27.3947 44.7605 27.224C43.6938 27.0533 42.6805 26.7867 41.7205 26.424C40.7818 26.0613 39.9498 25.5813 39.2245 24.984C38.5845 24.4293 38.1258 23.736 37.8485 22.904C37.5925 22.072 37.5392 21.24 37.6885 20.408C37.8378 19.5547 38.2112 18.8293 38.8085 18.232C39.4272 17.6347 40.2805 17.304 41.3685 17.24C41.1552 17.88 41.2725 18.5093 41.7205 19.128C42.1898 19.7253 42.8832 20.2373 43.8005 20.664C44.7178 21.0693 45.7205 21.3147 46.8085 21.4C47.9392 21.4853 48.9205 21.4427 49.7525 21.272C50.6058 21.1013 51.0752 20.7493 51.1605 20.216C51.2672 19.576 51.1392 19.064 50.7765 18.68C50.4138 18.296 49.9125 18.008 49.2725 17.816C48.6325 17.6027 47.9392 17.432 47.1925 17.304C46.4458 17.1547 45.7525 17.0053 45.1125 16.856C44.2592 16.6213 43.3952 16.3227 42.5205 15.96C41.6672 15.576 40.8778 15.096 40.1525 14.52C39.4485 13.944 38.8725 13.24 38.4245 12.408C37.9765 11.576 37.7418 10.6053 37.7205 9.496C37.6992 8.19467 37.9658 7.04267 38.5205 6.04C39.0752 5.016 39.8325 4.16267 40.7925 3.48C41.7525 2.776 42.8405 2.25333 44.0565 1.912C45.2938 1.54933 46.5525 1.368 47.8325 1.368ZM81.4283 23.928C81.4496 24.312 81.5029 24.7067 81.5883 25.112C81.6949 25.5173 81.8229 25.88 81.9723 26.2C81.8869 26.2853 81.6629 26.4347 81.3003 26.648C80.9376 26.8613 80.5003 27.0533 79.9883 27.224C79.4763 27.3947 78.9323 27.4587 78.3563 27.416C77.5243 27.352 76.8309 27.0107 76.2763 26.392C75.7429 25.752 75.4763 24.9413 75.4763 23.96C75.4549 23.7467 75.4443 23.5227 75.4443 23.288C75.4443 23.0533 75.4443 22.7547 75.4443 22.392C75.4656 21.4533 75.2736 20.6427 74.8683 19.96C74.4629 19.256 73.9189 18.7227 73.2363 18.36C72.5536 17.976 71.8069 17.784 70.9963 17.784C69.8229 17.784 68.8096 18.136 67.9563 18.84C67.1243 19.544 66.6656 20.568 66.5803 21.912C66.5803 22.104 66.5909 22.4667 66.6123 23C66.6549 23.5333 66.7083 24.0667 66.7723 24.6C66.8363 25.1333 66.9003 25.5173 66.9643 25.752C66.7296 26.008 66.3776 26.2747 65.9083 26.552C65.4389 26.808 64.9483 27.0107 64.4363 27.16C63.9243 27.3093 63.4763 27.352 63.0923 27.288C62.5163 27.1813 61.9616 26.7973 61.4283 26.136C60.8949 25.4747 60.6176 24.6533 60.5963 23.672C60.5963 23.48 60.5856 22.9467 60.5643 22.072C60.5643 21.176 60.5536 20.0667 60.5323 18.744C60.5323 17.4213 60.5216 16.0027 60.5003 14.488C60.5003 12.952 60.4896 11.4373 60.4683 9.944C60.4683 8.45067 60.4576 7.08533 60.4363 5.848C60.4363 4.61067 60.4363 3.61867 60.4363 2.872C60.4363 2.12533 60.4363 1.752 60.4363 1.752C60.6709 1.70933 61.0763 1.69867 61.6523 1.72C62.2496 1.74133 62.8789 1.83733 63.5403 2.008C64.2656 2.17867 64.9269 2.46667 65.5243 2.872C66.1216 3.27733 66.4629 3.864 66.5483 4.632C66.5909 4.99467 66.6229 5.38933 66.6443 5.816C66.6656 6.24267 66.6763 6.616 66.6763 6.936C66.6763 7.23467 66.6763 7.384 66.6763 7.384C66.6763 8.216 66.8683 8.99467 67.2523 9.72C67.6363 10.424 68.1589 10.9787 68.8203 11.384C69.5029 11.7893 70.2389 11.9813 71.0283 11.96C72.1589 11.9173 73.0336 11.5547 73.6523 10.872C74.2709 10.1893 74.7296 9.19733 75.0283 7.896C75.1136 7.53333 75.1776 7.02133 75.2203 6.36C75.2629 5.67733 75.2843 4.984 75.2843 4.28C75.3056 3.576 75.3162 2.97867 75.3162 2.488C75.3162 1.99733 75.3162 1.752 75.3162 1.752C75.5509 1.70933 75.9349 1.69867 76.4683 1.72C77.0016 1.74133 77.5669 1.816 78.1643 1.944C78.9109 2.09333 79.6149 2.38133 80.2763 2.808C80.9589 3.21333 81.3429 3.82133 81.4283 4.632C81.4709 5.03733 81.5029 5.688 81.5243 6.584C81.5456 7.48 81.5456 8.52533 81.5243 9.72C81.5243 10.8933 81.5136 12.152 81.4923 13.496C81.4709 14.8187 81.4496 16.1413 81.4283 17.464C81.4069 18.7653 81.3963 19.9813 81.3963 21.112C81.3963 22.2213 81.4069 23.16 81.4283 23.928ZM87.346 27.288C86.4287 27.1173 85.778 26.4987 85.394 25.432C85.0313 24.3653 84.85 23.0427 84.85 21.464C84.85 21.272 84.8393 20.792 84.818 20.024C84.818 19.256 84.8073 18.3067 84.786 17.176C84.786 16.024 84.7753 14.7867 84.754 13.464C84.754 12.1413 84.7433 10.8187 84.722 9.496C84.7007 8.17333 84.6793 6.95733 84.658 5.848C84.6367 4.71733 84.6153 3.78933 84.594 3.064C84.5727 2.33867 84.5513 1.90133 84.53 1.752C84.85 1.688 85.3407 1.67733 86.002 1.72C86.6847 1.74133 87.3887 1.848 88.114 2.04C88.8607 2.21067 89.5113 2.50933 90.066 2.936C90.6207 3.34133 90.9407 3.90667 91.026 4.632C91.0687 4.97333 91.1007 5.56 91.122 6.392C91.1433 7.20267 91.154 8.17333 91.154 9.304C91.1753 10.4133 91.186 11.5973 91.186 12.856C91.186 14.1147 91.186 15.3627 91.186 16.6C91.186 17.816 91.186 18.9467 91.186 19.992C91.186 21.016 91.186 21.88 91.186 22.584C91.2073 23.2667 91.2287 23.6827 91.25 23.832C91.2927 24.28 91.378 24.6107 91.506 24.824C91.634 25.016 91.7727 25.2613 91.922 25.56C91.3887 26.136 90.7273 26.6053 89.938 26.968C89.1487 27.3307 88.2847 27.4373 87.346 27.288Z" fill="#F54748"/>
<path d="M111.108 1.528C111.364 1.74133 111.598 2.14667 111.812 2.744C112.025 3.32 112.132 3.928 112.132 4.568C112.11 5.16533 111.95 5.73067 111.652 6.264C111.374 6.79733 110.862 7.16 110.116 7.352C109.902 7.416 109.572 7.46933 109.124 7.512C108.676 7.53333 108.206 7.55467 107.716 7.576C107.246 7.576 106.841 7.58667 106.5 7.608C106.18 7.608 106.02 7.608 106.02 7.608C104.761 7.608 103.694 7.77867 102.82 8.12C101.945 8.46133 101.476 8.99467 101.411 9.72C101.348 10.424 101.422 10.904 101.635 11.16C101.87 11.416 102.169 11.6293 102.532 11.8C102.788 11.9067 103.225 11.96 103.844 11.96C104.484 11.9387 105.166 11.8747 105.892 11.768C106.617 11.6613 107.268 11.5333 107.844 11.384C108.441 11.2347 108.836 11.0853 109.028 10.936C109.305 11.1707 109.497 11.6187 109.604 12.28C109.71 12.92 109.7 13.5813 109.572 14.264C109.465 14.8187 109.252 15.3307 108.932 15.8C108.612 16.248 108.174 16.5573 107.62 16.728C107.172 16.856 106.82 16.9307 106.564 16.952C106.329 16.9733 106.137 16.9947 105.988 17.016C104.366 17.0587 103.172 17.5067 102.404 18.36C101.657 19.192 101.305 20.2693 101.348 21.592C101.369 22.1253 101.486 22.6373 101.7 23.128C101.934 23.5973 102.18 23.928 102.436 24.12C102.414 24.3333 102.361 24.568 102.276 24.824C102.19 25.0587 102.041 25.336 101.828 25.656C101.55 26.0613 101.177 26.4347 100.708 26.776C100.238 27.1173 99.6302 27.2987 98.8835 27.32C98.1155 27.32 97.4648 27.1493 96.9315 26.808C96.3982 26.4453 95.9928 25.8373 95.7155 24.984C95.4595 24.1307 95.3315 22.9573 95.3315 21.464C95.3315 21.4213 95.3315 21.08 95.3315 20.44C95.3315 19.8 95.3208 19 95.2995 18.04C95.2995 17.08 95.2888 16.0773 95.2675 15.032C95.2675 13.9867 95.2568 13.0267 95.2355 12.152C95.2355 11.256 95.2355 10.5733 95.2355 10.104C95.2355 9.4 95.2035 8.64267 95.1395 7.832C95.0755 7.02133 95.0008 6.25333 94.9155 5.528C94.8302 4.78133 94.7555 4.184 94.6915 3.736C94.6062 3.37333 94.5422 3.02133 94.4995 2.68C94.4782 2.31733 94.4675 1.99733 94.4675 1.72C94.6168 1.784 95.0222 1.848 95.6835 1.912C96.3662 1.95466 97.1555 1.99733 98.0515 2.04C98.1368 2.04 98.3822 2.05067 98.7875 2.072C99.2142 2.09333 99.7048 2.11467 100.26 2.136C100.814 2.136 101.348 2.14667 101.86 2.168C102.393 2.18933 102.798 2.2 103.076 2.2C103.417 2.2 103.854 2.2 104.388 2.2C104.942 2.2 105.508 2.2 106.084 2.2C106.66 2.17867 107.172 2.15733 107.62 2.136C108.281 2.09333 108.974 2.02933 109.7 1.944C110.425 1.83733 110.894 1.69866 111.108 1.528ZM137.797 13.272C138.01 15.256 137.914 17.016 137.509 18.552C137.125 20.088 136.517 21.4213 135.685 22.552C134.874 23.6613 133.914 24.5787 132.805 25.304C131.695 26.008 130.511 26.5413 129.253 26.904C128.015 27.2453 126.789 27.416 125.573 27.416C124.357 27.416 123.119 27.256 121.861 26.936C120.602 26.616 119.407 26.1147 118.277 25.432C117.167 24.7493 116.186 23.864 115.333 22.776C114.501 21.688 113.882 20.3973 113.477 18.904C113.071 17.3893 112.975 15.64 113.189 13.656C113.359 11.9493 113.786 10.36 114.469 8.888C115.151 7.39467 116.037 6.104 117.125 5.016C118.213 3.90667 119.461 3.05333 120.869 2.456C122.277 1.83733 123.781 1.54933 125.381 1.592C125.487 1.592 125.647 1.51733 125.861 1.368C126.074 1.19733 126.362 1.03733 126.725 0.887999C127.087 0.738666 127.525 0.685333 128.037 0.727999C128.997 0.813332 130.01 1.208 131.077 1.912C132.143 2.616 133.157 3.55467 134.117 4.728C135.077 5.88 135.887 7.192 136.549 8.664C137.21 10.136 137.626 11.672 137.797 13.272ZM125.669 21.496C126.415 21.4747 127.119 21.368 127.781 21.176C128.463 20.984 129.071 20.632 129.605 20.12C130.138 19.608 130.565 18.8827 130.885 17.944C131.226 17.0053 131.407 15.8 131.429 14.328C131.45 13.304 131.226 12.312 130.757 11.352C130.287 10.392 129.637 9.58133 128.805 8.92C127.973 8.23733 127.023 7.84267 125.957 7.736C124.805 7.608 123.823 7.72533 123.013 8.088C122.202 8.42933 121.53 8.94133 120.997 9.624C120.485 10.2853 120.09 11.032 119.812 11.864C119.535 12.696 119.365 13.5387 119.301 14.392C119.173 15.864 119.311 17.0693 119.717 18.008C120.122 18.9467 120.666 19.672 121.349 20.184C122.031 20.696 122.757 21.048 123.525 21.24C124.314 21.432 125.029 21.5173 125.669 21.496ZM165.172 13.272C165.385 15.256 165.289 17.016 164.884 18.552C164.5 20.088 163.892 21.4213 163.06 22.552C162.249 23.6613 161.289 24.5787 160.18 25.304C159.07 26.008 157.886 26.5413 156.628 26.904C155.39 27.2453 154.164 27.416 152.948 27.416C151.732 27.416 150.494 27.256 149.236 26.936C147.977 26.616 146.782 26.1147 145.652 25.432C144.542 24.7493 143.561 23.864 142.708 22.776C141.876 21.688 141.257 20.3973 140.852 18.904C140.446 17.3893 140.35 15.64 140.564 13.656C140.734 11.9493 141.161 10.36 141.844 8.888C142.526 7.39467 143.412 6.104 144.5 5.016C145.588 3.90667 146.836 3.05333 148.244 2.456C149.652 1.83733 151.156 1.54933 152.756 1.592C152.862 1.592 153.022 1.51733 153.236 1.368C153.449 1.19733 153.737 1.03733 154.1 0.887999C154.462 0.738666 154.9 0.685333 155.412 0.727999C156.372 0.813332 157.385 1.208 158.452 1.912C159.518 2.616 160.532 3.55467 161.492 4.728C162.452 5.88 163.262 7.192 163.924 8.664C164.585 10.136 165.001 11.672 165.172 13.272ZM153.044 21.496C153.79 21.4747 154.494 21.368 155.156 21.176C155.838 20.984 156.446 20.632 156.98 20.12C157.513 19.608 157.94 18.8827 158.26 17.944C158.601 17.0053 158.782 15.8 158.804 14.328C158.825 13.304 158.601 12.312 158.132 11.352C157.662 10.392 157.012 9.58133 156.18 8.92C155.348 8.23733 154.398 7.84267 153.332 7.736C152.18 7.608 151.198 7.72533 150.388 8.088C149.577 8.42933 148.905 8.94133 148.372 9.624C147.86 10.2853 147.465 11.032 147.188 11.864C146.91 12.696 146.74 13.5387 146.676 14.392C146.548 15.864 146.686 17.0693 147.092 18.008C147.497 18.9467 148.041 19.672 148.724 20.184C149.406 20.696 150.132 21.048 150.9 21.24C151.689 21.432 152.404 21.5173 153.044 21.496ZM188.579 9.944C188.685 10.584 188.76 11.2773 188.803 12.024C188.867 12.7707 188.867 13.6773 188.803 14.744C188.739 15.7893 188.589 17.08 188.355 18.616C188.035 20.6853 187.192 22.424 185.827 23.832C184.461 25.2187 182.744 26.1253 180.675 26.552C180.099 26.68 179.427 26.776 178.659 26.84C177.891 26.8827 177.123 26.9253 176.355 26.968C175.608 26.9893 174.936 27.0213 174.339 27.064C173.805 27.1707 173.165 27.2453 172.419 27.288C171.672 27.3307 170.968 27.32 170.307 27.256C169.645 27.192 169.165 27.0747 168.867 26.904C169.037 26.6053 169.176 26.1573 169.283 25.56C169.389 24.9413 169.475 24.2693 169.539 23.544C169.603 22.8187 169.624 22.1253 169.603 21.464L169.507 10.616C169.507 9.74133 169.496 8.94133 169.475 8.216C169.475 7.49067 169.453 6.92533 169.411 6.52C169.368 6.072 169.197 5.67733 168.899 5.336C168.621 4.99467 168.419 4.65333 168.291 4.312C167.949 3.37333 167.8 2.456 167.843 1.56C167.949 1.58133 168.184 1.61333 168.547 1.656C168.931 1.67733 169.368 1.70933 169.859 1.752C170.392 1.77333 171.224 1.80533 172.355 1.848C173.507 1.89067 174.68 1.93333 175.875 1.976C175.875 1.976 176.045 1.98667 176.387 2.008C176.749 2.008 177.197 2.02933 177.731 2.072C178.264 2.11467 178.819 2.17867 179.395 2.264C179.971 2.328 180.472 2.41333 180.899 2.52C182.285 2.88267 183.448 3.384 184.387 4.024C185.347 4.64267 186.115 5.31467 186.691 6.04C187.288 6.76533 187.736 7.48 188.035 8.184C188.333 8.86667 188.515 9.45333 188.579 9.944ZM177.411 20.92C178.285 20.7067 179.107 20.2907 179.875 19.672C180.664 19.032 181.283 18.1787 181.731 17.112C182.2 16.024 182.371 14.7013 182.243 13.144C182.093 11.1173 181.56 9.70933 180.643 8.92C179.747 8.13067 178.573 7.72533 177.123 7.704C176.717 7.68267 176.397 7.94933 176.163 8.504C175.928 9.05867 175.768 9.95467 175.683 11.192C175.64 12.0027 175.608 12.6107 175.587 13.016C175.565 13.4 175.555 13.72 175.555 13.976C175.576 14.232 175.576 14.5627 175.555 14.968C175.555 14.968 175.555 15.16 175.555 15.544C175.576 15.928 175.608 16.408 175.651 16.984C175.693 17.5387 175.747 18.1147 175.811 18.712C175.875 19.288 175.949 19.7787 176.035 20.184C176.141 20.632 176.344 20.888 176.643 20.952C176.941 20.9947 177.197 20.984 177.411 20.92Z" fill="#FDC55E"/>
</svg>
