<svg width="192" height="46" viewBox="0 0 192 46" fill="none" xmlns="http://www.w3.org/2000/svg">
<path d="M25.984 23.272C26.1973 25.256 26.1013 27.016 25.696 28.552C25.312 30.088 24.704 31.4213 23.872 32.552C23.0613 33.6613 22.1013 34.5787 20.992 35.304C19.8827 36.008 18.6987 36.5413 17.44 36.904C16.2027 37.2453 14.976 37.416 13.76 37.416C12.544 37.416 11.3067 37.256 10.048 36.936C8.78933 36.616 7.59467 36.1147 6.464 35.432C5.35467 34.7493 4.37333 33.864 3.52 32.776C2.688 31.688 2.06933 30.3973 1.664 28.904C1.25867 27.3893 1.16267 25.64 1.376 23.656C1.54667 21.9493 1.97333 20.36 2.656 18.888C3.33867 17.3947 4.224 16.104 5.312 15.016C6.4 13.9067 7.648 13.0533 9.056 12.456C10.464 11.8373 11.968 11.5493 13.568 11.592C13.6747 11.592 13.8347 11.5173 14.048 11.368C14.2613 11.1973 14.5493 11.0373 14.912 10.888C15.2747 10.7387 15.712 10.6853 16.224 10.728C17.184 10.8133 18.1973 11.208 19.264 11.912C20.3307 12.616 21.344 13.5547 22.304 14.728C23.264 15.88 24.0747 17.192 24.736 18.664C25.3973 20.136 25.8133 21.672 25.984 23.272ZM13.856 31.496C14.6027 31.4747 15.3067 31.368 15.968 31.176C16.6507 30.984 17.2587 30.632 17.792 30.12C18.3253 29.608 18.752 28.8827 19.072 27.944C19.4133 27.0053 19.5947 25.8 19.616 24.328C19.6373 23.304 19.4133 22.312 18.944 21.352C18.4747 20.392 17.824 19.5813 16.992 18.92C16.16 18.2373 15.2107 17.8427 14.144 17.736C12.992 17.608 12.0107 17.7253 11.2 18.088C10.3893 18.4293 9.71733 18.9413 9.184 19.624C8.672 20.2853 8.27733 21.032 8 21.864C7.72267 22.696 7.552 23.5387 7.488 24.392C7.36 25.864 7.49867 27.0693 7.904 28.008C8.30933 28.9467 8.85333 29.672 9.536 30.184C10.2187 30.696 10.944 31.048 11.712 31.24C12.5013 31.432 13.216 31.5173 13.856 31.496ZM31.471 37.288C30.5537 37.1173 29.903 36.4987 29.519 35.432C29.1563 34.3653 28.975 33.0427 28.975 31.464C28.975 31.272 28.9643 30.792 28.943 30.024C28.943 29.256 28.9323 28.3067 28.911 27.176C28.911 26.024 28.9003 24.7867 28.879 23.464C28.879 22.1413 28.8683 20.8187 28.847 19.496C28.8257 18.1733 28.8043 16.9573 28.783 15.848C28.7617 14.7173 28.7403 13.7893 28.719 13.064C28.6977 12.3387 28.6763 11.9013 28.655 11.752C28.975 11.688 29.4657 11.6773 30.127 11.72C30.8097 11.7413 31.5137 11.848 32.239 12.04C32.9857 12.2107 33.6363 12.5093 34.191 12.936C34.7457 13.3413 35.0657 13.9067 35.151 14.632C35.1937 14.9733 35.2257 15.56 35.247 16.392C35.2683 17.2027 35.279 18.1733 35.279 19.304C35.3003 20.4133 35.311 21.5973 35.311 22.856C35.311 24.1147 35.311 25.3627 35.311 26.6C35.311 27.816 35.311 28.9467 35.311 29.992C35.311 31.016 35.311 31.88 35.311 32.584C35.3323 33.2667 35.3537 33.6827 35.375 33.832C35.4177 34.28 35.503 34.6107 35.631 34.824C35.759 35.016 35.8977 35.2613 36.047 35.56C35.5137 36.136 34.8523 36.6053 34.063 36.968C33.2737 37.3307 32.4097 37.4373 31.471 37.288ZM48.8325 11.368C50.0912 11.368 51.2965 11.592 52.4485 12.04C53.6218 12.4667 54.6032 13.0427 55.3925 13.768C56.2032 14.4933 56.6832 15.272 56.8325 16.104C56.9392 16.6587 56.8645 17.2773 56.6085 17.96C56.3525 18.6213 55.9472 19.208 55.3925 19.72C54.8378 20.2107 54.1658 20.4773 53.3765 20.52C53.0992 20.52 52.7472 20.488 52.3205 20.424C51.8938 20.36 51.4778 20.232 51.0725 20.04C50.6885 19.848 50.3792 19.5707 50.1445 19.208C50.4645 19.0373 50.6778 18.856 50.7845 18.664C50.8912 18.472 50.9232 18.28 50.8805 18.088C50.7952 17.6613 50.5392 17.3093 50.1125 17.032C49.7072 16.7547 49.2058 16.584 48.6085 16.52C48.2672 16.4773 47.8725 16.488 47.4245 16.552C46.9765 16.5947 46.5605 16.744 46.1765 17C45.8138 17.2347 45.5578 17.6293 45.4085 18.184C45.3232 18.504 45.3338 18.856 45.4405 19.24C45.5685 19.6027 45.8672 19.9547 46.3365 20.296C46.8058 20.616 47.5205 20.8933 48.4805 21.128C49.9525 21.4693 51.3178 21.8427 52.5765 22.248C53.8565 22.6533 54.9765 23.1547 55.9365 23.752C56.8965 24.3493 57.6325 25.096 58.1445 25.992C58.6778 26.8667 58.9232 27.9653 58.8805 29.288C58.8592 30.1627 58.6245 31.08 58.1765 32.04C57.7285 33 57.0778 33.896 56.2245 34.728C55.3712 35.5387 54.3258 36.2 53.0885 36.712C51.8512 37.224 50.4432 37.48 48.8645 37.48C47.8618 37.48 46.8272 37.3947 45.7605 37.224C44.6938 37.0533 43.6805 36.7867 42.7205 36.424C41.7818 36.0613 40.9498 35.5813 40.2245 34.984C39.5845 34.4293 39.1258 33.736 38.8485 32.904C38.5925 32.072 38.5392 31.24 38.6885 30.408C38.8378 29.5547 39.2112 28.8293 39.8085 28.232C40.4272 27.6347 41.2805 27.304 42.3685 27.24C42.1552 27.88 42.2725 28.5093 42.7205 29.128C43.1898 29.7253 43.8832 30.2373 44.8005 30.664C45.7178 31.0693 46.7205 31.3147 47.8085 31.4C48.9392 31.4853 49.9205 31.4427 50.7525 31.272C51.6058 31.1013 52.0752 30.7493 52.1605 30.216C52.2672 29.576 52.1392 29.064 51.7765 28.68C51.4138 28.296 50.9125 28.008 50.2725 27.816C49.6325 27.6027 48.9392 27.432 48.1925 27.304C47.4458 27.1547 46.7525 27.0053 46.1125 26.856C45.2592 26.6213 44.3952 26.3227 43.5205 25.96C42.6672 25.576 41.8778 25.096 41.1525 24.52C40.4485 23.944 39.8725 23.24 39.4245 22.408C38.9765 21.576 38.7418 20.6053 38.7205 19.496C38.6992 18.1947 38.9658 17.0427 39.5205 16.04C40.0752 15.016 40.8325 14.1627 41.7925 13.48C42.7525 12.776 43.8405 12.2533 45.0565 11.912C46.2938 11.5493 47.5525 11.368 48.8325 11.368ZM82.4283 33.928C82.4496 34.312 82.5029 34.7067 82.5883 35.112C82.6949 35.5173 82.8229 35.88 82.9723 36.2C82.8869 36.2853 82.6629 36.4347 82.3003 36.648C81.9376 36.8613 81.5003 37.0533 80.9883 37.224C80.4763 37.3947 79.9323 37.4587 79.3563 37.416C78.5243 37.352 77.8309 37.0107 77.2763 36.392C76.7429 35.752 76.4763 34.9413 76.4763 33.96C76.4549 33.7467 76.4443 33.5227 76.4443 33.288C76.4443 33.0533 76.4443 32.7547 76.4443 32.392C76.4656 31.4533 76.2736 30.6427 75.8683 29.96C75.4629 29.256 74.9189 28.7227 74.2363 28.36C73.5536 27.976 72.8069 27.784 71.9963 27.784C70.8229 27.784 69.8096 28.136 68.9563 28.84C68.1243 29.544 67.6656 30.568 67.5803 31.912C67.5803 32.104 67.5909 32.4667 67.6123 33C67.6549 33.5333 67.7083 34.0667 67.7723 34.6C67.8363 35.1333 67.9003 35.5173 67.9643 35.752C67.7296 36.008 67.3776 36.2747 66.9083 36.552C66.4389 36.808 65.9483 37.0107 65.4363 37.16C64.9243 37.3093 64.4763 37.352 64.0923 37.288C63.5163 37.1813 62.9616 36.7973 62.4283 36.136C61.8949 35.4747 61.6176 34.6533 61.5963 33.672C61.5963 33.48 61.5856 32.9467 61.5643 32.072C61.5643 31.176 61.5536 30.0667 61.5323 28.744C61.5323 27.4213 61.5216 26.0027 61.5003 24.488C61.5003 22.952 61.4896 21.4373 61.4683 19.944C61.4683 18.4507 61.4576 17.0853 61.4363 15.848C61.4363 14.6107 61.4363 13.6187 61.4363 12.872C61.4363 12.1253 61.4363 11.752 61.4363 11.752C61.6709 11.7093 62.0763 11.6987 62.6523 11.72C63.2496 11.7413 63.8789 11.8373 64.5403 12.008C65.2656 12.1787 65.9269 12.4667 66.5243 12.872C67.1216 13.2773 67.4629 13.864 67.5483 14.632C67.5909 14.9947 67.6229 15.3893 67.6443 15.816C67.6656 16.2427 67.6763 16.616 67.6763 16.936C67.6763 17.2347 67.6763 17.384 67.6763 17.384C67.6763 18.216 67.8683 18.9947 68.2523 19.72C68.6363 20.424 69.1589 20.9787 69.8203 21.384C70.5029 21.7893 71.2389 21.9813 72.0283 21.96C73.1589 21.9173 74.0336 21.5547 74.6523 20.872C75.2709 20.1893 75.7296 19.1973 76.0283 17.896C76.1136 17.5333 76.1776 17.0213 76.2203 16.36C76.2629 15.6773 76.2843 14.984 76.2843 14.28C76.3056 13.576 76.3162 12.9787 76.3162 12.488C76.3162 11.9973 76.3162 11.752 76.3162 11.752C76.5509 11.7093 76.9349 11.6987 77.4683 11.72C78.0016 11.7413 78.5669 11.816 79.1643 11.944C79.9109 12.0933 80.6149 12.3813 81.2763 12.808C81.9589 13.2133 82.3429 13.8213 82.4283 14.632C82.4709 15.0373 82.5029 15.688 82.5243 16.584C82.5456 17.48 82.5456 18.5253 82.5243 19.72C82.5243 20.8933 82.5136 22.152 82.4923 23.496C82.4709 24.8187 82.4496 26.1413 82.4283 27.464C82.4069 28.7653 82.3963 29.9813 82.3963 31.112C82.3963 32.2213 82.4069 33.16 82.4283 33.928ZM88.346 37.288C87.4287 37.1173 86.778 36.4987 86.394 35.432C86.0313 34.3653 85.85 33.0427 85.85 31.464C85.85 31.272 85.8393 30.792 85.818 30.024C85.818 29.256 85.8073 28.3067 85.786 27.176C85.786 26.024 85.7753 24.7867 85.754 23.464C85.754 22.1413 85.7433 20.8187 85.722 19.496C85.7007 18.1733 85.6793 16.9573 85.658 15.848C85.6367 14.7173 85.6153 13.7893 85.594 13.064C85.5727 12.3387 85.5513 11.9013 85.53 11.752C85.85 11.688 86.3407 11.6773 87.002 11.72C87.6847 11.7413 88.3887 11.848 89.114 12.04C89.8607 12.2107 90.5113 12.5093 91.066 12.936C91.6207 13.3413 91.9407 13.9067 92.026 14.632C92.0687 14.9733 92.1007 15.56 92.122 16.392C92.1433 17.2027 92.154 18.1733 92.154 19.304C92.1753 20.4133 92.186 21.5973 92.186 22.856C92.186 24.1147 92.186 25.3627 92.186 26.6C92.186 27.816 92.186 28.9467 92.186 29.992C92.186 31.016 92.186 31.88 92.186 32.584C92.2073 33.2667 92.2287 33.6827 92.25 33.832C92.2927 34.28 92.378 34.6107 92.506 34.824C92.634 35.016 92.7727 35.2613 92.922 35.56C92.3887 36.136 91.7273 36.6053 90.938 36.968C90.1487 37.3307 89.2847 37.4373 88.346 37.288Z" fill="#F54748"/>
<path d="M112.108 11.528C112.364 11.7413 112.598 12.1467 112.812 12.744C113.025 13.32 113.132 13.928 113.132 14.568C113.11 15.1653 112.95 15.7307 112.652 16.264C112.374 16.7973 111.862 17.16 111.116 17.352C110.902 17.416 110.572 17.4693 110.124 17.512C109.676 17.5333 109.206 17.5547 108.716 17.576C108.246 17.576 107.841 17.5867 107.5 17.608C107.18 17.608 107.02 17.608 107.02 17.608C105.761 17.608 104.694 17.7787 103.82 18.12C102.945 18.4613 102.476 18.9947 102.411 19.72C102.348 20.424 102.422 20.904 102.635 21.16C102.87 21.416 103.169 21.6293 103.532 21.8C103.788 21.9067 104.225 21.96 104.844 21.96C105.484 21.9387 106.166 21.8747 106.892 21.768C107.617 21.6613 108.268 21.5333 108.844 21.384C109.441 21.2347 109.836 21.0853 110.028 20.936C110.305 21.1707 110.497 21.6187 110.604 22.28C110.71 22.92 110.7 23.5813 110.572 24.264C110.465 24.8187 110.252 25.3307 109.932 25.8C109.612 26.248 109.174 26.5573 108.62 26.728C108.172 26.856 107.82 26.9307 107.564 26.952C107.329 26.9733 107.137 26.9947 106.988 27.016C105.366 27.0587 104.172 27.5067 103.404 28.36C102.657 29.192 102.305 30.2693 102.348 31.592C102.369 32.1253 102.486 32.6373 102.7 33.128C102.934 33.5973 103.18 33.928 103.436 34.12C103.414 34.3333 103.361 34.568 103.276 34.824C103.19 35.0587 103.041 35.336 102.828 35.656C102.55 36.0613 102.177 36.4347 101.708 36.776C101.238 37.1173 100.63 37.2987 99.8835 37.32C99.1155 37.32 98.4648 37.1493 97.9315 36.808C97.3982 36.4453 96.9928 35.8373 96.7155 34.984C96.4595 34.1307 96.3315 32.9573 96.3315 31.464C96.3315 31.4213 96.3315 31.08 96.3315 30.44C96.3315 29.8 96.3208 29 96.2995 28.04C96.2995 27.08 96.2888 26.0773 96.2675 25.032C96.2675 23.9867 96.2568 23.0267 96.2355 22.152C96.2355 21.256 96.2355 20.5733 96.2355 20.104C96.2355 19.4 96.2035 18.6427 96.1395 17.832C96.0755 17.0213 96.0008 16.2533 95.9155 15.528C95.8302 14.7813 95.7555 14.184 95.6915 13.736C95.6062 13.3733 95.5422 13.0213 95.4995 12.68C95.4782 12.3173 95.4675 11.9973 95.4675 11.72C95.6168 11.784 96.0222 11.848 96.6835 11.912C97.3662 11.9547 98.1555 11.9973 99.0515 12.04C99.1368 12.04 99.3822 12.0507 99.7875 12.072C100.214 12.0933 100.705 12.1147 101.26 12.136C101.814 12.136 102.348 12.1467 102.86 12.168C103.393 12.1893 103.798 12.2 104.076 12.2C104.417 12.2 104.854 12.2 105.388 12.2C105.942 12.2 106.508 12.2 107.084 12.2C107.66 12.1787 108.172 12.1573 108.62 12.136C109.281 12.0933 109.974 12.0293 110.7 11.944C111.425 11.8373 111.894 11.6987 112.108 11.528ZM138.797 23.272C139.01 25.256 138.914 27.016 138.509 28.552C138.125 30.088 137.517 31.4213 136.685 32.552C135.874 33.6613 134.914 34.5787 133.805 35.304C132.695 36.008 131.511 36.5413 130.253 36.904C129.015 37.2453 127.789 37.416 126.573 37.416C125.357 37.416 124.119 37.256 122.861 36.936C121.602 36.616 120.407 36.1147 119.277 35.432C118.167 34.7493 117.186 33.864 116.333 32.776C115.501 31.688 114.882 30.3973 114.477 28.904C114.071 27.3893 113.975 25.64 114.189 23.656C114.359 21.9493 114.786 20.36 115.469 18.888C116.151 17.3947 117.037 16.104 118.125 15.016C119.213 13.9067 120.461 13.0533 121.869 12.456C123.277 11.8373 124.781 11.5493 126.381 11.592C126.487 11.592 126.647 11.5173 126.861 11.368C127.074 11.1973 127.362 11.0373 127.725 10.888C128.087 10.7387 128.525 10.6853 129.037 10.728C129.997 10.8133 131.01 11.208 132.077 11.912C133.143 12.616 134.157 13.5547 135.117 14.728C136.077 15.88 136.887 17.192 137.549 18.664C138.21 20.136 138.626 21.672 138.797 23.272ZM126.669 31.496C127.415 31.4747 128.119 31.368 128.781 31.176C129.463 30.984 130.071 30.632 130.605 30.12C131.138 29.608 131.565 28.8827 131.885 27.944C132.226 27.0053 132.407 25.8 132.429 24.328C132.45 23.304 132.226 22.312 131.757 21.352C131.287 20.392 130.637 19.5813 129.805 18.92C128.973 18.2373 128.023 17.8427 126.957 17.736C125.805 17.608 124.823 17.7253 124.013 18.088C123.202 18.4293 122.53 18.9413 121.997 19.624C121.485 20.2853 121.09 21.032 120.812 21.864C120.535 22.696 120.365 23.5387 120.301 24.392C120.173 25.864 120.311 27.0693 120.717 28.008C121.122 28.9467 121.666 29.672 122.349 30.184C123.031 30.696 123.757 31.048 124.525 31.24C125.314 31.432 126.029 31.5173 126.669 31.496ZM166.172 23.272C166.385 25.256 166.289 27.016 165.884 28.552C165.5 30.088 164.892 31.4213 164.06 32.552C163.249 33.6613 162.289 34.5787 161.18 35.304C160.07 36.008 158.886 36.5413 157.628 36.904C156.39 37.2453 155.164 37.416 153.948 37.416C152.732 37.416 151.494 37.256 150.236 36.936C148.977 36.616 147.782 36.1147 146.652 35.432C145.542 34.7493 144.561 33.864 143.708 32.776C142.876 31.688 142.257 30.3973 141.852 28.904C141.446 27.3893 141.35 25.64 141.564 23.656C141.734 21.9493 142.161 20.36 142.844 18.888C143.526 17.3947 144.412 16.104 145.5 15.016C146.588 13.9067 147.836 13.0533 149.244 12.456C150.652 11.8373 152.156 11.5493 153.756 11.592C153.862 11.592 154.022 11.5173 154.236 11.368C154.449 11.1973 154.737 11.0373 155.1 10.888C155.462 10.7387 155.9 10.6853 156.412 10.728C157.372 10.8133 158.385 11.208 159.452 11.912C160.518 12.616 161.532 13.5547 162.492 14.728C163.452 15.88 164.262 17.192 164.924 18.664C165.585 20.136 166.001 21.672 166.172 23.272ZM154.044 31.496C154.79 31.4747 155.494 31.368 156.156 31.176C156.838 30.984 157.446 30.632 157.98 30.12C158.513 29.608 158.94 28.8827 159.26 27.944C159.601 27.0053 159.782 25.8 159.804 24.328C159.825 23.304 159.601 22.312 159.132 21.352C158.662 20.392 158.012 19.5813 157.18 18.92C156.348 18.2373 155.398 17.8427 154.332 17.736C153.18 17.608 152.198 17.7253 151.388 18.088C150.577 18.4293 149.905 18.9413 149.372 19.624C148.86 20.2853 148.465 21.032 148.188 21.864C147.91 22.696 147.74 23.5387 147.676 24.392C147.548 25.864 147.686 27.0693 148.092 28.008C148.497 28.9467 149.041 29.672 149.724 30.184C150.406 30.696 151.132 31.048 151.9 31.24C152.689 31.432 153.404 31.5173 154.044 31.496ZM189.579 19.944C189.685 20.584 189.76 21.2773 189.803 22.024C189.867 22.7707 189.867 23.6773 189.803 24.744C189.739 25.7893 189.589 27.08 189.355 28.616C189.035 30.6853 188.192 32.424 186.827 33.832C185.461 35.2187 183.744 36.1253 181.675 36.552C181.099 36.68 180.427 36.776 179.659 36.84C178.891 36.8827 178.123 36.9253 177.355 36.968C176.608 36.9893 175.936 37.0213 175.339 37.064C174.805 37.1707 174.165 37.2453 173.419 37.288C172.672 37.3307 171.968 37.32 171.307 37.256C170.645 37.192 170.165 37.0747 169.867 36.904C170.037 36.6053 170.176 36.1573 170.283 35.56C170.389 34.9413 170.475 34.2693 170.539 33.544C170.603 32.8187 170.624 32.1253 170.603 31.464L170.507 20.616C170.507 19.7413 170.496 18.9413 170.475 18.216C170.475 17.4907 170.453 16.9253 170.411 16.52C170.368 16.072 170.197 15.6773 169.899 15.336C169.621 14.9947 169.419 14.6533 169.291 14.312C168.949 13.3733 168.8 12.456 168.843 11.56C168.949 11.5813 169.184 11.6133 169.547 11.656C169.931 11.6773 170.368 11.7093 170.859 11.752C171.392 11.7733 172.224 11.8053 173.355 11.848C174.507 11.8907 175.68 11.9333 176.875 11.976C176.875 11.976 177.045 11.9867 177.387 12.008C177.749 12.008 178.197 12.0293 178.731 12.072C179.264 12.1147 179.819 12.1787 180.395 12.264C180.971 12.328 181.472 12.4133 181.899 12.52C183.285 12.8827 184.448 13.384 185.387 14.024C186.347 14.6427 187.115 15.3147 187.691 16.04C188.288 16.7653 188.736 17.48 189.035 18.184C189.333 18.8667 189.515 19.4533 189.579 19.944ZM178.411 30.92C179.285 30.7067 180.107 30.2907 180.875 29.672C181.664 29.032 182.283 28.1787 182.731 27.112C183.2 26.024 183.371 24.7013 183.243 23.144C183.093 21.1173 182.56 19.7093 181.643 18.92C180.747 18.1307 179.573 17.7253 178.123 17.704C177.717 17.6827 177.397 17.9493 177.163 18.504C176.928 19.0587 176.768 19.9547 176.683 21.192C176.64 22.0027 176.608 22.6107 176.587 23.016C176.565 23.4 176.555 23.72 176.555 23.976C176.576 24.232 176.576 24.5627 176.555 24.968C176.555 24.968 176.555 25.16 176.555 25.544C176.576 25.928 176.608 26.408 176.651 26.984C176.693 27.5387 176.747 28.1147 176.811 28.712C176.875 29.288 176.949 29.7787 177.035 30.184C177.141 30.632 177.344 30.888 177.643 30.952C177.941 30.9947 178.197 30.984 178.411 30.92Z" fill="#191919"/>
</svg>
